<?xml version="1.0" encoding="utf-8"?>
<!-- Generator: Adobe Illustrator 26.2.1, SVG Export Plug-In . SVG Version: 6.00 Build 0)  -->
<svg version="1.1" id="圖層_1" xmlns="http://www.w3.org/2000/svg" xmlns:xlink="http://www.w3.org/1999/xlink" x="0px" y="0px"
	 viewBox="0 0 5622 3432.6" style="enable-background:new 0 0 5622 3432.6;" xml:space="preserve">
<style type="text/css">
	.st0{fill:#06060B;}
	.st1{fill:url(#SVGID_1_);}
	.st2{fill:url(#SVGID_00000071527391763575146160000002439582817840857984_);}
	.st3{fill:url(#SVGID_00000123401484044262047000000007784927040299901880_);}
	.st4{fill:url(#SVGID_00000100378025893912760670000007006280683594863029_);}
	.st5{fill:url(#SVGID_00000096762961583282584240000001394072347394402432_);}
	.st6{fill:url(#SVGID_00000148651622077870883140000009669954000799615167_);}
</style>
<g id="圖層_2_00000093163025149578658010000012149358757775073162_">
	<g>
		<rect x="2.9" y="4.6" class="st0" width="5628.4" height="3431.6"/>
		<path d="M5630.8,5.1v3430.6H3.4V5.1H5630.8 M5631.8,4.1H2.4v3432.6h5629.4V4.1L5631.8,4.1z"/>
	</g>
</g>
<g id="圖層_3">
</g>
<radialGradient id="SVGID_1_" cx="-732.2953" cy="4074.9365" r="1597.2467" gradientTransform="matrix(1.8063 0 0 1.7871 1372.0734 -3978.7651)" gradientUnits="userSpaceOnUse">
	<stop  offset="0" style="stop-color:#413F65"/>
	<stop  offset="1" style="stop-color:#00193F;stop-opacity:0.2"/>
</radialGradient>
<path class="st1" d="M15.1,522c-7.2,0-3.9,0.4-4.5,0.7C7.9,523.8,6,526.2,6,529C6.8,672.2-1.2,3277.3-4,3423.6
	c-0.1,3.6,2.7,6.6,6.3,6.8c153.9,9.6,2953.3,0.9,2953.3-41.5C2955.6,1805.6,1639.1,522,15.1,522z"/>
</svg>
