<?xml version="1.0" encoding="utf-8"?>
<!-- Generator: Adobe Illustrator 26.2.1, SVG Export Plug-In . SVG Version: 6.00 Build 0)  -->
<svg version="1.1" id="圖層_1" xmlns="http://www.w3.org/2000/svg" xmlns:xlink="http://www.w3.org/1999/xlink" x="0px" y="0px"
	 viewBox="0 0 5622 1716.3" style="enable-background:new 0 0 5622 1716.3;" xml:space="preserve">
<style type="text/css">
	.st0{fill:#06060B;}
	.st1{fill:none;stroke:url(#SVGID_1_);stroke-width:5;stroke-miterlimit:10;stroke-dasharray:11.9921,11.9921;}
	
		.st2{fill:none;stroke:url(#SVGID_00000008832981256459212480000016244897529210424753_);stroke-width:5;stroke-miterlimit:9.9999;stroke-dasharray:11.9993,11.9993;}
	.st3{fill:#CFE6A6;}
	.st4{fill:#F6EEA8;}
	.st5{fill:#F4B678;}
	.st6{fill:none;stroke:#FB5CFF;stroke-miterlimit:10;}
	.st7{fill:#E57D7D;}
	.st8{fill:#AAECEC;}
	.st9{fill:#A19FDA;}
	.st10{font-family:'GillSans-SemiBold';}
	.st11{font-size:343.5328px;}
	.st12{fill:url(#SVGID_00000074400395351614077820000014015764513059808700_);}
	.st13{fill:url(#SVGID_00000091720544302306587460000012562843244342387625_);}
	.st14{fill:url(#SVGID_00000054965210955192128230000002798320878381295270_);}
	.st15{fill:url(#SVGID_00000044877862983160800910000007641049395851680386_);}
	.st16{fill:url(#SVGID_00000173138556695275497400000016770862047775734168_);}
	.st17{fill:url(#SVGID_00000106128386784911296690000003536275103935069842_);}
	.st18{fill:url(#SVGID_00000137815865994034833470000003875757218867427242_);}
	.st19{fill:url(#SVGID_00000175309544046023488240000000701337899148035977_);}
	.st20{fill:url(#SVGID_00000113330097211822250110000012841424454296217246_);}
	.st21{fill:url(#SVGID_00000102536393356837322520000009154186099639766673_);}
	.st22{fill:url(#SVGID_00000103263827177378104500000006327672362477773473_);}
	.st23{fill:url(#SVGID_00000163065358400774835230000002583217242683446678_);}
	.st24{fill:url(#SVGID_00000160192087163938688020000010181230763263824816_);}
</style>
<g id="圖層_1_00000152986189283497993200000015344897837957801649_">
</g>
<g id="圖層_2_00000147207370414356402020000011215285706122080703_">
	<g>
		<rect x="-8.5" y="-1.7" class="st0" width="5625.7" height="1730.1"/>
		<path d="M5616.7-1.2v1729.1H-8V-1.2H5616.7 M5617.7-2.2H-9v1731.1h5626.7V-2.2L5617.7-2.2z"/>
	</g>
</g>
<g id="圖層_9">
	<g>
		<linearGradient id="SVGID_1_" gradientUnits="userSpaceOnUse" x1="3485.9019" y1="929.2667" x2="5204.0303" y2="186.9453">
			<stop  offset="0" style="stop-color:#C8A5FF"/>
			<stop  offset="0.2504" style="stop-color:#6F78FF"/>
			<stop  offset="0.483" style="stop-color:#1053FF"/>
			<stop  offset="0.759" style="stop-color:#0131CC"/>
			<stop  offset="1" style="stop-color:#000069"/>
		</linearGradient>
		<path class="st1" d="M5612,1035.2c-47,39.1-95,73.1-149,109.1c-77,50-151,87-232,123c-3,1-6,1-9,2c-178,76-367,115-559,118
			c-182,2-362-28-534-93c-50-19-98-40-147-63c-25-12-48-25-73-38c-50-28-94-57-142-91c-29-21-54-41-82-63c-1-1-2-3-3-4
			c-8-6-15-12-23-18c-2-2-4-5-6-7c-13-11-25-22-38-33c-4-4-8-8-11-12c-65-60-118-122-173-192c-20-26-37-50-56-78
			c-66-100-117-196-160-303c-2-6-4-12-6-18c-6-15-13-30-19-46c-10-31-20-61-29-92c-2-5-3-9-5-14c-4-11-6-22-9-33c-3-14-7-27-10-41
			c-1-3-1-6-1-9c-4-13-7-25-10-38c0-2,0-3,0-5c-8-34-13-65-17.4-98"/>
	</g>
</g>
<g id="圖層_9_拷貝">
	<g>
		
			<linearGradient id="SVGID_00000055676584111047714970000012539803905463040916_" gradientUnits="userSpaceOnUse" x1="3124.5156" y1="-20.1868" x2="5332.4121" y2="1474.91">
			<stop  offset="0" style="stop-color:#C8A5FF"/>
			<stop  offset="0.2504" style="stop-color:#6F78FF"/>
			<stop  offset="0.483" style="stop-color:#1053FF"/>
			<stop  offset="0.759" style="stop-color:#0131CC"/>
			<stop  offset="1" style="stop-color:#000069"/>
		</linearGradient>
		
			<path style="fill:none;stroke:url(#SVGID_00000055676584111047714970000012539803905463040916_);stroke-width:5;stroke-miterlimit:9.9999;stroke-dasharray:11.9993,11.9993;" d="
			M5619.6,1066.7c-13.6,8.6-26.6,18.6-41.6,26.6c-3,2-5,4-8,6c-366,224-780,288-1195,190c-10-2-19-3-29-6c-1-1-3-2-4-2
			c-5-1-10-2-15-3c-14-4-28-8-43-12c-18-6-36-11-54-17c-33-12-66-23-98-37c-2-1-3,0-5-1c-11-5-22-9-33-13c-4-2-7-4-11-6
			c-27-10-53-22-79-36c-34-17-66-31-99-53c-3-2-6-2-9-4c-170-102-312-218-438-370c-1-1-3-2-4-3c-19-23-35-45-54-68
			c-11-15-21-28-32-43c-20-29-37-54-56-83c-2-3-2-5-4-8c-3-4-5-8-8-12c-4-5-5-11-8-17c-31-51-57-101-81-155c-1-1-2-3-3-4
			c-39-90-72-178-95-276c-1-5-2-9-3-13c-5-16-8-31-11-46.5"/>
	</g>
</g>
<g id="R">
	<g id="XMLID_00000115482762558284497510000006761294678604831416_">
		<g>
			<path class="st3" d="M3256.2,312.6c4.3,2.1,10.1,4.1,9.8,5.3c0,0,0,0,0,0.1c-0.6,1-10.2-2.5-17.9-6.3c-8.4-4.1-8-5.3-14.1-7.5
				c-3.8-1.3-2.4-0.3-12.4-2.9c-2.9-0.7-6.1-1.6-10.2-1c-1.4,0.2-4.1,0.7-4.5,2.2c-0.5,1.5,1.4,3.2,2.3,4.1
				c13.5,12.5,18.1,15.4,18.1,15.4c9.5,5.9,14.5,8.2,14.2,8.8c-0.3,0.7-6.7-1.4-11.5-3.2c-2.7-1.1-7.3-2.9-12.2-6
				c-9.9-6.3-8.8-10-19.1-17.6c-1.2-0.9-6.7-4.9-15-7.9c-4.9-1.8-11.3-4-14.1-1.3c-1.3,1.2-1.3,3.1-1.3,5.3c0,1.7,0.2,5.2,3.2,10.3
				c3.5,6,6,5.9,7.4,10.3c1.3,4,0.7,8.3-0.3,8.4c-0.9,0.2-1.6-3.4-5-8.4c-4.1-6.3-5.8-5.1-7.7-9.4c-2.2-5-0.7-8.5-4.2-11.8
				c-0.6-0.6-1.7-1.5-2.7-1.3c-2.1,0.5-2.5,5.6-2.7,7.9c-0.3,4,0.2,5.8,1,13.1c0.9,7.9,0.6,8.4,1.5,11.3c0.5,1.5,1.5,3.7,3.5,8.2
				c1.7,3.8,2.6,5.7,3.5,7.5c1,1.9,3.3,6.4,6.9,11.5c0.7,0.9,1.7,2.4,3,4.6c1.6,2.9,3,5.3,2.5,5.8c-0.8,0.7-6.1-2.6-9.7-7.5
				c-1.2-1.6-2.1-3.5-4-7.2c-3.2-6.4-4-9.4-4.6-9.3s-0.7,3.6,1.4,18.5c0.7,4.4,1.4,8.7,2.2,13.1c2,6,3.3,11.2,4.2,15.2
				c0.7,3.1,1.3,6.5,1.3,10.8c0,1.5-0.1,7.3-1.2,7.5c-0.3,0-1.2-0.3-5.5-14.4c-2-6.6-3-10-3.7-13.2c-1.3-5.7-1.8-10.6-2.7-20
				c-0.8-7.5-0.6-8.1-1.7-20c-1.4-15.3-1.4-11.8-1.5-14.7c-0.1-3.6-0.2-10-2.7-17.6c-0.7-2.2-1.4-3.9-2.2-3.8c-0.9,0-1.5,2.5-3,8.9
				c-1.3,5.5-1.9,8.2-2.5,10.3c-0.4,1.4-1.7,6.6-4.1,12.8c-0.9,2.4-4.3,11.3-5.5,11c-1-0.3,0.2-7.3,0.4-8.1c0.9-5.4,2-7,3.2-13
				c0.8-4,1.5-7.5,0.5-7.9s-3,2.8-8.6,9.6c-5.7,6.9-8.8,9.5-12.3,11.5c-2.2,1.2-6.3,3.2-7.1,2.2c-0.9-1.1,2.9-5.5,4.8-7.5
				c3.2-3.4,4.7-3.7,8.3-6.7c2.1-1.8,4.5-4.7,9.4-10.5c5.9-7,6.7-8.6,7.3-9.7c1.9-3.8,2.2-6.7,2.6-9.8c0.3-2.4,0.4-5.5-1.2-7.7
				c0,0-0.1-0.1-0.2-0.2c-1.5-1.8-4-3.2-5.8-3c-1.9,0.2-2,2.1-5,5.1c-3.4,3.4-7.1,4.9-8.7,5.5c-2,0.8-4.5,1.7-7.7,1.4
				c-3.3-0.2-6.8-1.7-6.7-2.6s3.1-1.3,6-1.7c3.7-0.5,4.5-0.2,6.2-0.5c4.9-0.9,9.5-5.9,8.6-8.2c-0.7-1.9-4.7-0.4-13.7-2.6
				c-4.8-1.2-5.9-2.2-9.8-2.6c-4.1-0.4-7.6,0.1-9.9,0.7c-9.2,0.4-11-0.5-11.2-1.2c-0.3-1.3,4.3-3.4,8.2-4.4
				c3.5-0.9,6.2-0.7,10.9-0.4c5.3,0.3,9.4,1.1,12.8,1.8c4.9,1,7.4,1.4,10,2.2c5.2,1.5,6.7,2.6,8.7,1.8c2.8-1.3,3.4-5.4,3.6-7.1
				c0.8-5.5-1.9-10-3.2-11.9c-2.8-3.7-6.9-8.1-12.8-11.7c-3.2-2-3.9-1.9-10.7-5.5c-7.2-3.9-8.7-5.2-15.4-8.9
				c-7.4-4.1-11-6.1-14.4-7.2c-10.3-3.4-12.5,0.6-26.3-1.2c-12-1.6-23.2-6.3-23.6-6.5c0,0,0.1,0,0.2,0.1c2.7-0.6,6.7-1.1,11.4-0.4
				c3.3,0.5,3.8,1.1,7.6,1.8c2.7,0.5,5.3,0.8,14.4,0.7c10.5-0.1,9.4-0.6,12.4-0.2c5.8,0.7,10.2,2.8,14.4,4.8
				c2.9,1.4,5.7,3.1,11.4,6.5c7.7,4.7,10.2,6.5,10.5,6.2c0.3-0.4-1.6-2.9-12.7-13.4c-5.3-5.1-10.1-8.6-13.4-10.8
				c-5.9-3.9-10-5.7-14.6-10.8c-3.1-3.5-6-7.9-5.3-8.6c0.7-0.6,3.9,2.1,12,7.6c8.7,6,8.2,5.2,13,8.7c7.5,5.4,12.6,10.2,17.2,14.6
				c3.9,3.7,8.8,8.6,14.2,14.7c7.5,8.5,13,12.5,15.4,11.3c1.7-0.9,0.9-4.2,0.5-12.5c-0.6-11.2,0.6-9.3,0.3-25
				c-0.3-13.7-1.3-19.6-0.1-19.9c1.1-0.2,3.5,4.8,4.6,9.3c0.9,3.5,0.9,5.9,0.7,12.3c-0.3,13.3-0.5,14.6,0,18.3s1.6,12,4.7,12.5
				c2.6,0.4,5.1-4.8,8.7-10.6c3.8-6.2,9.4-14.3,17.7-23.2c5.2-6.9,8.7-13.1,10.9-17.7c4.1-8.3,6.4-15.6,6.8-17.2
				c0.7-2.2,2.5-8.3,5-16.8c1.7-5.5,2.4-8,3.2-7.9c1.2,0.1,1.5,6.3,1.5,9.4c0,5.4-0.7,9.9-1.5,13.1c-3.9,11.4-8.6,20-12.3,26
				c-4.3,7-9.2,13-17.3,23.4c-5.1,6.5-9.6,12.1-8.8,12.8c0.3,0.3,1.5-0.6,7.9-4.6c6.7-4.2,6.4-3.8,7.7-4.8c6-4.5,8.3-8.7,9.1-8.3
				c0.7,0.4-0.5,3.6-1.7,5.9c-0.8,1.5-2.3,3.7-6,6.7c-0.7,0.6-2.8,2.2-7.4,5.1c-6.5,4-8.4,4.2-10.5,7.1c-0.7,1-2.9,3.9-1.8,6.2
				c0.8,1.6,2.7,2.2,4.6,2.6c2.2,0.6,5.1,0.9,9.6,0c4.3-0.8,7.9-2.4,10.9-4s5.7-3.8,11-8.1c5-4,8.7-7.4,10.7-9.1
				c3.6-3.2,6.4-5.8,9.9-9.4c5.7-5.8,8.2-9.1,8.9-8.7c0.7,0.4-0.6,3.9-1.5,5.6c-2,3.9-4.7,6.5-6.7,8.2c-2.2,2.6-4.5,5.3-6.7,7.9
				c-1.7,1.3-3.2,2.3-4.2,3.1c-0.8,0.6-2.2,1.7-4,3.1c-2.4,2-3.7,3-3.5,3.4c0.5,1,4.7-0.1,7.9-1c1.1-0.3,4-1.1,8.7-3.1
				c4-1.7,4.3-2.2,8.7-4.1c3.7-1.6,3.6-1.3,7.2-2.9c6-2.6,6.5-3.4,10.4-4.8c3.2-1.1,9.1-2.8,9.6-1.8c0.5,0.9-3.4,4.3-7.8,5.8
				c-1.6,0.6-2.1,0.5-4,1.2c-3.3,1.3-5.4,3-6.2,3.6c-2.4,1.9-6.3,3.3-14.2,6.3c-8.4,3.1-9.2,2.6-16.1,5.6c-3.5,1.5-7.1,3.2-8.2,3.8
				c-2.5,1.3-5,2.6-7.4,3.8c-1,0.4-7.3,3.2-9.4,9.9c-0.5,1.5-1.4,5.1,0,9.1c1.4,4.1,4.4,6.4,6.9,8.2c4.1,3.1,8.2,4.2,12.3,5.3
				c3.3,0.9,5.8,1.2,11.1,1.9c17.5,2,16.9,1.3,20.9,2.4c8,2.1,14.1,5.9,16.1,7.2C3250.8,308.7,3250.9,310,3256.2,312.6z"/>
		</g>
	</g>
</g>
<g id="Hyper_拷貝">
	<g id="XMLID_00000137104179932668725980000008411335335023672750_">
		<g>
			<path class="st4" d="M3572.1,752c4.6,3,11.1,6.1,10.6,7.4c0,0,0,0,0,0.1c-0.7,1.1-11.4-4.2-19.9-9.6c-9.2-5.8-8.6-7.2-15.4-10.5
				c-4.2-2-2.7-0.7-13.9-4.9c-3.2-1.2-6.8-2.7-11.6-2.4c-1.7,0.1-4.7,0.3-5.4,1.9c-0.7,1.6,1.3,3.9,2.2,5
				c14.1,16.2,19.2,20.1,19.2,20.1c10.2,8.1,15.7,11.3,15.3,12s-7.6-2.5-12.8-5.2c-3-1.6-8.1-4.3-13.4-8.6
				c-10.7-8.5-9.1-12.7-20.1-22.9c-1.2-1.1-28.9-17.3-32.4-14.5c-1.6,1.3-1.8,3.4-2,6c-0.2,1.9-0.3,6.1,2.6,12.4
				c3.4,7.4,6.2,7.6,7.4,12.9c1.1,4.8-0.1,9.6-1.2,9.7c-1.1,0.1-1.5-4.1-4.8-10.4c-4.1-7.8-6.1-6.7-7.8-11.8c-2-6.1,0.1-10-3.6-14.2
				c-0.6-0.7-1.8-2-3-1.8c-2.5,0.3-3.5,6.1-4,8.8c-0.8,4.6-0.4,6.7-0.2,15.2c0.2,9.3-0.2,9.8,0.5,13.3c0.4,1.8,1.3,4.5,3.1,9.9
				c1.6,4.6,2.4,7,3.2,9.1c0.9,2.3,3.1,7.9,6.8,14.2c0.7,1.2,1.7,3,2.9,5.7c1.6,3.5,2.9,6.5,2.2,7c-1,0.7-6.7-3.8-10.3-9.9
				c-1.2-2-2.1-4.4-3.8-8.8c-3-7.9-3.6-11.4-4.2-11.3c-0.7,0-1.2,4-0.4,21.6c0.4,5.1,0.7,10.3,1.1,15.4c1.7,7.2,2.6,13.4,3.2,18.1
				c0.5,3.6,0.8,7.6,0.3,12.7c-0.2,1.7-0.9,8.4-2.2,8.5c-0.4,0-1.4-0.6-4.7-17.4c-1.6-7.9-2.4-11.9-2.9-15.8
				c-0.9-6.8-0.9-12.4-1-23.4c-0.1-8.8,0.1-9.4,0.1-23.3c0-17.9-0.3-13.8-0.2-17.2c0.2-4.2,0.8-11.6-1.3-20.7
				c-0.6-2.6-1.2-4.7-2.2-4.7c-1.1-0.1-2,2.8-4.3,9.9c-2,6.1-3,9.2-3.9,11.6c-0.6,1.6-2.7,7.4-6,14.3c-1.3,2.7-6.1,12.5-7.4,12
				c-1.1-0.4,1-8.4,1.3-9.4c1.6-6.1,3.1-7.8,5-14.6c1.3-4.5,2.5-8.5,1.4-9.1s-3.7,2.9-10.9,10c-7.2,7.2-11.1,9.9-15.3,11.7
				c-2.6,1.1-7.6,2.8-8.4,1.6c-0.9-1.4,3.9-5.9,6.3-8c4.1-3.5,5.8-3.6,10.2-6.6c2.6-1.8,5.7-4.8,11.9-10.9c7.5-7.3,8.6-9,9.4-10.3
				c2.5-4.2,3.2-7.4,4-11c0.6-2.7,1.1-6.3-0.6-9.1c0,0-0.1-0.1-0.2-0.2c-1.5-2.3-4.3-4.2-6.3-4.3c-2.2,0-2.5,2.2-6.2,5.3
				c-4.2,3.5-23.2,0.9-19.9,0.8c4.3-0.1,5.1,0.4,7.2,0.3c5.8-0.4,11.5-5.6,10.7-8.3c-0.6-2.3-5.3-1.1-15.4-4.8
				c-5.4-2-6.5-3.3-11-4.3c-4.7-1.1-8.7-0.8-11.4-0.5c-10.6-0.8-12.6-2-12.7-2.8c-0.2-1.5,5.3-3.4,9.8-4c4.1-0.6,7.2,0,12.6,0.9
				c6,1.1,10.6,2.5,14.4,3.7c5.6,1.7,8.3,2.6,11.3,3.9c5.8,2.4,7.4,3.9,9.7,3.2c3.4-1.1,4.5-5.8,4.9-7.7c1.5-6.3-1.1-11.8-2.4-14.2
				c-2.8-4.6-7.1-10.2-13.4-15.2c-3.5-2.8-4.3-2.7-11.6-7.8c-7.9-5.4-9.4-7.1-16.7-12.3c-8-5.7-12-8.5-15.7-10.2
				c-11.4-5.2-14.4-0.9-30-4.8c-13.6-3.4-25.9-10.3-26.4-10.6c0.1,0,0.2,0.1,0.2,0.1c3.1-0.3,7.8-0.4,13.1,1c3.7,1,4.2,1.7,8.5,3.1
				c3,1,6,1.6,16.4,2.7c12,1.3,10.9,0.5,14.2,1.3c6.6,1.6,11.3,4.5,16,7.4c3.2,2,6.2,4.3,12.3,9c8.4,6.5,11,8.9,11.3,8.5
				c0.4-0.4-1.6-3.6-13.1-17.2c-5.6-6.6-10.6-11.3-14.2-14.3c-6.3-5.3-10.8-7.8-15.6-14.4c-3.2-4.4-6.1-9.9-5.2-10.6
				c0.8-0.6,4.3,2.9,12.9,10.4c9.4,8.1,8.8,7,14,11.7c8,7.2,13.3,13.4,18.2,19.2c4.1,4.8,9.2,11.1,14.7,18.8
				c7.7,10.8,13.6,16.2,16.4,15.1c2.1-0.8,1.5-4.7,1.9-14.4c0.5-13,1.7-10.6,2.9-28.9c1.1-15.8,0.5-22.9,1.9-23
				c1.3-0.1,3.5,6,4.3,11.3c0.6,4.1,0.4,6.9-0.4,14.3c-1.7,15.3-2.1,16.9-1.9,21.1c0.2,4.4,0.6,14.1,4.1,15.1
				c2.9,0.8,6.4-4.8,11.1-11.1c5-6.6,12.2-15.3,22.7-24.5c6.7-7.3,11.3-14,14.4-19c5.5-9,8.9-17.2,9.6-19c1-2.4,3.7-9.3,7.5-18.7
				c2.5-6.2,3.6-8.9,4.5-8.8c1.3,0.3,1.1,7.5,0.7,11.1c-0.5,6.2-1.9,11.3-3.1,14.9c-5.7,12.6-11.9,22-16.8,28.5
				c-5.7,7.5-11.9,13.9-22.3,24.8c-6.5,6.9-12.2,12.7-11.4,13.6c0.3,0.4,1.8-0.5,9.6-4.3c8.1-3.9,7.7-3.6,9.3-4.6
				c7.3-4.4,10.5-9,11.3-8.4c0.7,0.5-0.9,4.1-2.6,6.5c-1.1,1.6-3,3.9-7.5,7c-0.8,0.6-3.4,2.2-9,4.9c-7.8,3.7-10,3.8-12.7,6.8
				c-1,1.1-3.7,4.1-2.7,6.9c0.7,2,2.9,2.9,4.9,3.7c2.5,1,5.7,1.7,11,1.2c5-0.4,9.3-1.7,12.9-3.2c3.7-1.5,7-3.7,13.5-7.9
				c6.1-4,10.8-7.4,13.2-9.2c4.5-3.3,7.9-5.8,12.4-9.5c7.1-6,10.3-9.5,11.1-8.9s-1.1,4.4-2.3,6.3c-2.7,4.2-6.1,6.9-8.5,8.6
				c-2.8,2.8-5.7,5.5-8.5,8.3c-2.1,1.2-3.9,2.3-5.2,3.1c-0.9,0.6-2.7,1.7-4.9,3.1c-3,2-27.4,19.2-30.5,26.6c-0.7,1.7-2.1,5.7-1,10.6
				c1.2,5,4.4,8,7,10.4c4.4,4.1,9,5.9,13.5,7.7c3.7,1.4,6.5,2.2,12.5,3.6c19.8,4.6,19.2,3.8,23.6,5.5c8.9,3.5,15.6,8.7,17.7,10.4
				C3566.4,746.7,3566.3,748.3,3572.1,752z"/>
		</g>
	</g>
	<g id="XMLID_00000124850659986141448890000011113460035418931131_">
		<g>
			<path class="st4" d="M3451.5,790.8c0,0,0-0.1,0-0.3c0.1-1.5-0.1-1.9,0.1-3.7c0.3-3.1,3.1-12.3,3.7-19.7c0.7-7.9,0-8.4,0.9-15
				c0.5-3.3,1.1-6.8,1.3-7.9c0.5-2.4,1.1-4.8,1.6-7.2c0.1-1,1-6.9,6.6-10.4c1.2-0.8,4.3-2.4,8.3-2.2c3.8,0.2,5.7,1.9,9.3,3.8
				c8.4,4.4,16.8,5,17,4.2c0.2-0.6-5.5-1.8-10.6-7.2c-0.4-0.4-7.1-7.7-4.9-11.6c0.8-1.4,2.5-1.9,4.5-2.4c1.5-0.4,4.8-1.1,10.3,0.2
				c6.4,1.5,6.9,3.6,11.4,3.8c4,0.1,7.7-1.4,7.6-2.3c-0.1-0.8-3.5-0.5-9-2.1c-6.8-1.9-6.2-3.7-10.6-4.2c-5.1-0.6-8,1.5-11.8-0.7
				c-0.7-0.4-1.8-1-1.9-2c-0.1-1.9,4.4-3.5,6.5-4.3c3.6-1.3,5.3-1.3,12.2-2.4c7.5-1.2,7.9-1.6,10.7-1.5c1.5,0,3.8,0.3,8.4,0.9
				c3.9,0.5,5.9,0.8,7.7,1.1c2,0.4,6.7,1.2,12.3,3.1c1,0.3,2.6,0.9,4.9,1.4c3,0.7,5.6,1.3,5.9,0.7c0.4-0.9-3.9-4.5-9.3-6.4
				c-1.8-0.6-3.8-0.9-7.6-1.6c-6.7-1.1-9.6-1.1-9.6-1.6s3.1-1.5,17.3-3.4c4.2-0.5,8.3-0.9,12.5-1.4c6,0.2,11.1,0.1,14.9-0.2
				c3-0.2,6.2-0.5,10.2-1.6c1.3-0.4,6.6-1.9,6.5-2.9c0-0.3-0.6-1-14.6-1.1c-6.6-0.1-9.9-0.1-13,0.1c-5.6,0.3-10.1,1.1-18.9,2.6
				c-7.1,1.2-7.6,1.4-18.7,3.4c-14.3,2.6-11.1,1.7-13.8,2.3c-3.3,0.8-9.2,2.3-16.7,2c-2.2-0.1-3.9-0.3-4.1-0.9
				c-0.2-0.8,1.9-1.9,7.3-4.7c4.6-2.4,7-3.6,8.7-4.6c1.2-0.7,5.6-3.1,10.6-6.6c2-1.4,2-5.4,1.3-5c-4.6,2.1-5.9,3.5-11,5.9
				c-3.4,1.6-6.5,3.1-7.1,2.4c-0.7-0.7,1.8-3.2,6.6-9.7s-5.2-0.2-9.2,5.4c-4.9,6.7-6.1,7.8-7,8.6c-3,2.5-5.5,3.5-8.3,4.6
				c-2.1,0.8-4.9,1.7-7.3,0.8c0,0-0.1,0-0.2-0.1c-2.1-0.8-4-2.6-4.3-4.2c-0.3-1.7,1.4-2.2,3.4-5.5c2.3-3.7-3.8-0.3-6.1-0.5
				c-1.9-0.2-1.6-3.9-6-10.9c-2.4-3.8-3.5-4.5-4.9-7.7c-1.5-3.4-1.8-6.5-1.9-8.6c-2.1-7.9-3.3-9.2-4-9.2c-1.2,0.1-2,4.5-1.9,8
				c0.1,3.2,0.9,5.5,2.4,9.4c1.7,4.4,3.4,7.7,4.9,10.4c2.2,3.9,3.2,5.9,4.6,7.9c2.7,4,4.1,5.1,3.9,6.9c-0.4,2.7-4,4.2-5.5,4.8
				c-4.8,2-9.6,0.9-11.7,0.2c-4.1-1.5-9.1-3.9-14-7.9c-2.7-2.2-2.8-2.8-7.8-7.7c-5.4-5.2-7-6.1-12.1-10.8
				c-5.6-5.2-8.4-7.8-10.3-10.4c-5.7-7.9-2.7-10.8-7.9-22c-4.6-9.8-11.8-18.1-12.1-18.4c0,0,0.1,0.1,0.1,0.2
				c0.2,2.4,0.7,5.9,2.5,9.7c1.3,2.7,2,2.9,3.6,6c1.2,2.1,2.1,4.3,4.4,12c2.6,8.9,1.9,8.1,3,10.6c2.2,4.8,5.2,7.9,8.1,11
				c2,2.1,4.3,4.1,8.9,8c6.3,5.4,8.6,7,8.4,7.3c-0.2,0.4-3.1-0.7-15.5-7.4c-6.1-3.2-10.5-6.4-13.3-8.7c-5.1-4-7.8-7-13.7-9.7
				c-4-1.8-8.8-3.2-9.2-2.4c-0.4,0.7,2.9,2.8,10.1,8.3c7.8,5.9,6.8,5.7,11.3,8.9c6.9,5,12.6,8.1,17.8,11c4.4,2.4,10.1,5.3,17,8.4
				c9.7,4.3,14.8,7.9,14.3,10.3c-0.4,1.7-3.6,1.8-11.3,3.5c-2.2,0.5-4.3,1.1-6.5,1.6c-11.9,2.9-12.6,6.6-20.2,7.7
				c-4.7,0.7-9-0.3-17.5-2.4c-7.9-1.9-11.2-3.7-11.3-3.3c-0.3,0.8,11.1,10,24.3,9.1c4.6-0.3,9.8-1.9,11.4-2.4
				c12-3.5,13.2-4,16.7-4.5c3.6-0.5,11.4-1.6,12.6,0.9c1,2.1-3,5.5-7.4,10c-4.6,4.7-10.6,11.5-16.6,20.7
				c-4.9,6.1-9.7,10.6-13.3,13.6c-6.5,5.5-12.6,9.2-13.9,10c-1.8,1.1-6.9,4.1-14,8.4c-4.6,2.8-6.7,4-6.4,4.7c0.4,1,6.1-0.3,9-1
				c4.9-1.3,8.8-3.1,11.5-4.5c9.3-6.1,16-12.2,20.6-16.8c5.2-5.4,9.5-11,16.8-20.4c4.6-5.9,8.5-11.1,9.4-10.6
				c0.4,0.2-0.1,1.4-2.1,7.8c-2.1,6.7-1.8,6.4-2.4,7.7c-2.5,6.2-5.8,9.2-5.2,9.8c0.5,0.5,3.2-1.3,4.9-2.9c1.2-1.1,2.8-2.8,4.6-6.7
				c0.3-0.7,1.3-2.9,2.7-7.5c1.9-6.5,1.7-8.1,3.7-10.6c0.7-0.9,2.8-3.4,5.2-3.1c1.7,0.2,2.7,1.8,3.6,3.2c1.1,1.7,2.1,4.1,2.5,8.1
				c0.3,3.9-0.1,7.3-0.8,10.2c-0.7,3-2,5.8-4.5,11.3c-3.2,7-5.6,11.3-5.6,11.3c-0.5,1-6.3,12.1-10.6,20.8
				c-5.7,11.5-8.5,17.3-7.6,17.9c1.1,0.7,6.3-4,9.4-9.4c2.5-4.2,3.4-8.2,3.8-10.9c3.1-5.3,6.1-10.6,9.2-16c0.7-1.8,1.3-3.2,1.8-4.3
				c0.3-0.8,1-2.3,1.8-4.1c1.2-2.5,1.8-3.8,2.2-3.8c1.1,0.2,1.1,4,1.2,7C3452,757.7,3451.4,790.3,3451.5,790.8z"/>
		</g>
	</g>
	<g>
		<g>
			<path d="M2568.7,508.3c-0.1-0.1-0.2-0.2-0.4-0.4c-0.1-0.1-0.3-0.2-0.5-0.3c-0.2-0.1-0.4-0.1-0.6-0.1c-0.2,0-0.4,0-0.6,0.1
				c-0.2,0.1-0.3,0.2-0.5,0.3c-0.1,0.1-0.2,0.2-0.2,0.3c-0.1,0.2-0.2,0.5-0.2,0.8c0,0.1,0,0.3,0.1,0.4c0.1,0.3,0.2,0.5,0.4,0.7
				c0.1,0.1,0.2,0.2,0.4,0.4c0.1,0.1,0.3,0.2,0.5,0.3c0.2,0.1,0.4,0.1,0.6,0.1c0.2,0,0.4,0,0.6-0.1c0.2-0.1,0.3-0.2,0.5-0.3
				c0.1-0.1,0.2-0.2,0.2-0.3c0.1-0.2,0.2-0.5,0.2-0.8c0-0.1,0-0.3-0.1-0.4C2569.1,508.7,2568.9,508.5,2568.7,508.3L2568.7,508.3z"/>
		</g>
	</g>
	<g id="XMLID_00000029739579996475376580000002169828774230167209_">
		<g>
			<path class="st4" d="M3352.1,733.9c0.5,1,5.5,0.8,9.4-0.9c1.4-0.6,1.6-1,3.3-1.7c3-1.2,5.6-1.4,6.6-1.5c2.9-0.3,6.4-1.7,13.4-4.7
				c7.5-3.2,7.6-4.1,14.1-6.4c3.3-1.2,6.8-2.3,7.9-2.6c2.5-0.7,5-1.4,7.5-2.1c1-0.4,6.9-2.4,13.5,0.9c1.5,0.7,4.9,2.7,7.4,6.4
				c2.5,3.8,2.5,7.3,2.6,10.2c0.1,4.9-1.5,8.3-3,11.7c-1.3,2.8-0.1,11.6,1.4,12.4c1.5,0.7,6-12.2,8.5-19.6c1.5-4.4,3.5-10.2,7.3-10
				c1.8,0.1,3.3,1.3,5,2.9c1.4,1.2,4.1,3.8,6.4,9.4c2.7,6.5,1.2,8,3.9,12.1c2.4,3.7,6.2,6.3,7,5.8c0.7-0.5-1.7-3.4-3.9-9.1
				c-2.6-7.1-0.7-7.4-3-11.6c-2.7-4.9-6.4-6.5-7-11c-0.1-0.8-0.2-2.2,0.6-2.7c1.7-1,6,2.3,8,3.8c3.4,2.6,4.5,4.2,9.9,9.8
				c5.9,6.2,6.4,6.3,8.2,8.9c1,1.4,2.1,3.6,4.5,8c2.1,3.8,3.1,5.7,3.9,7.5c0.9,2,3.2,6.7,5.2,12.6c0.4,1.1,0.9,2.8,1.9,5.1
				c1.3,3.1,2.4,5.7,3.2,5.7c1.1,0,1.5-5.7-0.3-11.5c-0.6-1.9-1.6-3.9-3.4-7.6c-3.3-6.6-5.2-9.2-4.8-9.5s-7.2-14.8-9.5-16.9
				c-2.8-2.6-7.9-7.2-12.5-14.1c-1.3-2-2.3-3.7-1.8-4.2c0.6-0.6,2.9,0.8,8.9,4.4c5.2,3,7.7,4.5,9.7,5.7c1.4,0.8,6.3,3.5,12.7,6.4
				c2.5,1.1,11.7,5.2,12.1,4.2c0.4-0.8-6-5-6.8-5.5c-4.9-3.2-6.9-3.6-12.4-7.1c-3.7-2.3-6.9-4.3-6.7-5.3c0.3-1,4.1,0,12.9,1.2
				c8.9,1.2,12.9,1,16.5,0.2c2.3-0.6,6.3-1.9,6-3c-0.3-1.3-6.1-2-8.9-2.2c-4.6-0.3-5.7,0.5-10.3,0.7c-2.6,0.1-6.5-0.4-14.1-1.3
				c-9.1-1.1-10.9-1.7-12.1-2.1c-4.2-1.5-6.7-3.3-9.5-5.2c-2.1-1.5-4.7-3.6-5.5-6.2c0,0,0-0.1-0.1-0.2c-0.6-2.3-0.2-4.8,1-5.9
				c1.3-1.1,2.9,0.2,7.1,0.4c4.8,0.3,8.2-1.1,9.6-1.7c1.8-0.7,4-1.7,5.7-4c1.8-2.3,2.7-5.6,1.9-6.2c-0.8-0.6-2.9,1.1-4.9,2.7
				c-2.6,2-2.8,2.8-4.1,3.7c-3.7,2.5-10.4,2-11.7-0.2c-1.1-1.8,2.5-3.3,6-10.7c1.9-4,1.7-5.4,3.7-8.2c2.1-3,4.6-4.8,6.5-5.9
				c5.8-5.7,6.2-7.4,5.7-8c-0.9-1.1-5.3,0.4-8.4,2.2c-2.8,1.6-4.3,3.5-6.8,6.7c-2.9,3.6-4.7,6.8-6.2,9.5c-2.2,3.9-3.2,5.8-4.2,8
				c-1.8,4.4-1.9,6.2-3.7,6.8c-2.7,0.9-6.4-1.6-7.8-2.6c-4.9-3.4-7-8.3-7.7-10.4c-1.3-4.4-2.4-10.1-1.9-16.5
				c0.3-3.5,0.8-3.9,1.9-10.8c1.2-7.4,1-9.2,2-16.2c1.1-7.6,1.6-11.4,2.7-14.4c3.4-9,7.9-7.7,14.7-17.8c5.8-8.8,8.7-19.4,8.8-19.8
				c0,0-0.1,0.1-0.1,0.2c-2.1,1.3-4.9,3.5-7.1,7c-1.6,2.5-1.4,3.2-3,6.2c-1.2,2.1-2.5,4-8,9.8c-6.3,6.7-6.1,5.7-7.6,7.8
				c-2.9,4.3-3.8,8.5-4.7,12.7c-0.6,2.8-0.9,5.9-1.5,11.9c-0.8,8.3-0.8,11.1-1.2,11.1c-0.5,0-1.4-3.1-3.3-17.6
				c-1-7-0.9-12.6-0.8-16.3c0.3-6.5,1.4-10.4,0-17.1c-0.9-4.5-2.8-9.5-3.8-9.5c-0.9,0-0.7,4-1,13.1c-0.3,9.9-0.7,8.9-0.8,14.5
				c-0.1,8.6,0.8,15.3,1.6,21.4c0.7,5.1,1.7,11.7,3.4,19.4c2.4,10.9,2.4,17.2,0,17.9c-1.7,0.5-9,1-10.4,3.3c-1.2,2-41,8.7-38.4,9.5
				c1.7,0.5,12.4,0.7,17.4-0.3c7-1.4,8.3-2.4,11.9-1.8c1.3,0.2,6.2,6.5,5.5,8c-0.8,1.8-2.3,3.9-5.7,6.2c-3.2,2.2-6.6,3.4-9.7,4.3
				c-3.1,0.8-11.7,5.8-11.5,6.2c0.5,1.1-2.8,3-5.5,4.4c-0.9,0.5-3.3,1.8-7.7,3.4c-3.8,1.4-4.3,1.2-8.4,2.7c-3.5,1.2-3.2,1.4-6.6,2.6
				c-5.7,2.1-6.6,1.8-10.1,3.3C3356.4,730.2,3351.6,732.8,3352.1,733.9z"/>
		</g>
	</g>
	<path class="st4" d="M3770.1,328.8"/>
</g>
<g id="Bushy">
	<g id="XMLID_00000062188423005688856850000004746885566404172972_">
		<g>
			<path class="st5" d="M3926.2,1164.4c3.7,7.4,7,10.6,5.9,13.6s-5.7,3.8-9,4c-1.6-0.1-5.6-0.1-9.8,2.6c-4.3,2.8-6.3,6.8-7,8.4
				c-1.8,2.2-3.6,4.4-5.5,6.6c-4,8.3-6.2,12.3-6.6,12.1c0,0-0.1-0.1-0.1-0.2c-0.5-8.8,1.3-14.5,3.1-18c3.1-6.2,7.6-9.3,7.4-15
				c-0.1-3.1-1.6-5.6-2.7-7c-1.2-0.9-3.3-2.4-6.2-3.1c-3.5-0.8-6.4,0-7.8,0.4c-2.4-0.3-6.5-0.4-11.3,1.3c-5.3,1.9-8.8,5.1-10.5,7
				c-2.1,1.1-5.2,3.1-8.2,6.6c-3.8,4.5-5.5,9.2-6.2,11.9c-3.6,6-5.5,8.9-5.8,8.7c-0.1,0-0.1-0.1,0-0.3c-0.5-2.3-1-5.9-0.4-10.1
				c0.6-4,1.9-6.9,2.7-8.8c1-2.2,2.7-5.2,5.5-8.4c2.5-3.1,6.4-7.3,12.1-11c5.8-3.7,11.2-5.4,14.8-6.2c6.1-0.5,11.2-0.3,14.8,0
				c5.6,0.5,8.5,0.8,11.7,2.6c4.9,2.8,6.9,6.8,7.8,6.2c0.7-0.5,0.1-3-2.7-12.3c-1.3-4.2-2.4-7.7-3.1-10.1c-2-7.5-2.8-14.1-3.1-18.9
				c-0.5-7-0.9-13.1,0.8-20.7c1.7-7.8,3.9-12.8,3.9-12.8c2.3-5.3,4.1-7.4,3.5-10.6c-0.8-4.1-4.9-6.3-5.5-6.6
				c-6.7-3.7-14,1.2-14.8,1.8c-7.4,5.1-11.3,7.9-11.3,7.9s-4.6,1.2-13.3,3.5c-2.9-0.7-5.7-1.5-8.6-2.2c-6.4-4.8-13.5-5.8-17.6-2.2
				c-3,2.6-3.7,7.2-4.3,11c-1,6.1,0,11.3,0.8,14.1c0.5,4.3,1,8.5,1.6,12.8c2.7,2.6,3,6.2,2,7.5c-1.1,1.2-4.2,1.1-6.6-1.8
				c-0.7-1.3-1.7-3.4-2.7-6.2c-2.8-7.8-1.9-10.9-4.3-19.4c-1.1-3.9-2.3-7.7-5.1-11.9c-1.5-2.3-3.9-5.7-8.2-7.9
				c-5.1-2.6-9.7-2-11.7-1.8c-5.3,0.7-8.9,3.3-9.8,4c-7.2,5.3-6,11.4-13.3,17.2c-4.2,3.4-9.5,5.1-10.2,4c-0.6-1.1,2.4-4.7,5.5-7.9
				c1.1-1.7,2.4-4.1,3.5-7c0.6-1.6,2-5.5,2.7-11c0.5-4.3,0.9-7.5,0-11.4c-1.1-4.5-3.2-7.5-4.7-9.2c-1.3-1-3.3-2.3-5.9-3.1
				c-7-2-13.2,1.7-16,3.5c-3.6,2.3-4.6,3.9-16.4,18c-6.9,8.2-6.1,7.2-7,8.4c-6.6,8.9-6.9,12.8-13.7,25.1c-6.7,12-7.7,10.4-12.1,19.8
				c-4.6,9.9-6.3,17.5-7.8,17.2c-1.2-0.3-1.7-5.8-1.2-10.1c0.1-0.6,0.2-1.1,0.3-1.7c1.2-5.9,4.1-10.8,4.8-12
				c5.2-8.7,7.8-13,8.2-14.1c0.8-2,2.5-6.6,6-12.1c1.5-2.3,2.7-3.9,3.5-5.5c0.8-1.5,1.3-3,1.4-4.8c0-0.8,0.2-4.6-2-7
				c-1.8-2-3.8-1.6-6.8-2.4c-3.8-1.1-4.5-3.6-10-7.7c-7.5-5.6-11.2-8.4-13.7-9.2c-5.2-1.9-6.6-0.6-14.1-3.1c-1.7-0.6-9.2-3.1-9-4.8
				c0.2-1.4,5.4-1.8,8.6-1.8c2.8,0.1,4.9,0.6,6.2,0.9c10.4,2.4,10.4,1.1,14.5,2.6c6.4,2.4,5.3,5.1,13.7,9.7
				c3.5,1.9,7.6,4.1,13.3,4.4c2.2,0.1,7.3,0.4,12.5-2.6c6.7-3.9,9.5-10.9,12.5-18.5c1.9-4.8,3.8-9.7,3.9-16.7
				c0.1-6.7-1.5-11.9-2.7-14.9c-1.8-2.6-4.4-6.3-7.8-10.6c-6.7-8.4-10-12.6-14.4-15.4c-5.2-3.3-10.8-4.2-19.1-5.7
				c-0.4-0.1-4.9-0.9-10.5-3.1c-4.2-1.6-6-2.9-7.4-4.8c-1.8-2.5-2.2-5.4-2.3-7c2.3,0.3,4.8,0.7,7.4,1.3c4.6,1.1,8.6,2.5,12.1,4
				c0,0,5.9,0.6,16.8,1.8c3.7,1.3,9,3.6,14.1,8.4c5.1,4.8,3.8,6.1,12.1,15.4c3.4,3.8,8.2,8.7,14.8,13.2l0,0c0,0,6.3,1.9,11.7,1.3
				c1.2-0.1,5.3-0.6,8.9-3.3c5.5-4.2,6.9-11.4,8.1-17.6c0.7-3.7,0.8-6.1,0.9-20c0.1-17.3,0-20.4,2-25.1c1.1-2.5,3.7-7.8,9-11
				c3.4-2,8.4-3.5,9.5-1.7c1.5,2.4-5.2,10.1-6,11c-3.4,6.3-4.2,11.4-4.3,15c-0.1,3.4,0.4,5.2,0.8,10.1c0.5,6.2,0.3,11.3,0,14.5
				c0.6,4,1.3,8.1,1.9,12.1c2.2,7.8,4.9,10,6.9,10.5c3.7,1,6-2.5,12.7-5.5c9-4.1,17.3-3.4,19.9-3.1c3.7,0.4,10.1,1.7,17.3,6.5
				c3.7,4,7.5,8,11.2,12c0.9,1.6,4.1,6.5,10,8.4c1.9,0.6,6,2,10,0c7.2-3.7,10-16.9,10-16.9l3.1-10.5c0.9-0.7,2.3-1.3,4.8-0.8
				c-0.1,3.4-0.3,6.7-0.4,10.1c-0.7,2.8-1.3,5.6-2,8.4c-1.3,3.4-2.6,6.7-3.9,10.1c-2.1,1.2-5.3,3.6-7.8,7.9c-1.2,2-3.2,5.4-3.1,10.1
				c0,1.5,0.1,4.5,2,7c1.6,2.1,3.6,2.7,6.2,3.5c4.2,1.3,5.6,0.4,10.5,1.3c3.8,0.7,5.6,1.1,7,2.2c4.8,4,3.7,14.2,3.1,19.8
				c-1,9.3-3,9.9-5.1,21.1c-1.8,9.5-1.9,17.1-2,21.1c-0.1,6.7-0.1,13.9,2,22.9C3920.9,1150.2,3922.4,1156.8,3926.2,1164.4z"/>
		</g>
		<g>
			<path class="st6" d="M3913,1011c-0.7,2.8-1.3,5.6-2,8.4c-1.3,3.4-2.6,6.7-3.9,10.1c-2.1,1.2-5.3,3.6-7.8,7.9
				c-1.2,2-3.2,5.4-3.1,10.1c0,1.5,0.1,4.5,2,7c1.6,2.1,3.6,2.7,6.2,3.5c4.2,1.3,5.6,0.4,10.5,1.3c3.8,0.7,5.6,1.1,7,2.2
				c4.8,4,3.7,14.2,3.1,19.8c-1,9.3-3,9.9-5.1,21.1c-1.8,9.5-1.9,17.1-2,21.1c-0.1,6.7-0.1,13.9,2,22.9c0.9,3.8,2.4,10.4,6.2,18
				c3.7,7.4,7,10.6,5.9,13.6s-5.7,3.8-9,4c-1.6-0.1-5.6-0.1-9.8,2.6c-4.3,2.8-6.3,6.8-7,8.4c-1.8,2.2-3.6,4.4-5.5,6.6
				c-4,8.3-6.2,12.3-6.6,12.1c0,0-0.1-0.1-0.1-0.2c-0.5-8.8,1.3-14.5,3.1-18c3.1-6.2,7.6-9.3,7.4-15c-0.1-3.1-1.6-5.6-2.7-7
				c-1.2-0.9-3.3-2.4-6.2-3.1c-3.5-0.8-6.4,0-7.8,0.4c-2.4-0.3-6.5-0.4-11.3,1.3c-5.3,1.9-8.8,5.1-10.5,7c-2.1,1.1-5.2,3.1-8.2,6.6
				c-3.8,4.5-5.5,9.2-6.2,11.9c-3.6,6-5.5,8.9-5.8,8.7c-0.1,0-0.1-0.1,0-0.3c-0.5-2.3-1-5.9-0.4-10.1c0.6-4,1.9-6.9,2.7-8.8
				c1-2.2,2.7-5.2,5.5-8.4c2.5-3.1,6.4-7.3,12.1-11c5.8-3.7,11.2-5.4,14.8-6.2c6.1-0.5,11.2-0.3,14.8,0c5.6,0.5,8.5,0.8,11.7,2.6
				c4.9,2.8,6.9,6.8,7.8,6.2c0.7-0.5,0.1-3-2.7-12.3c-1.3-4.2-2.4-7.7-3.1-10.1c-2-7.5-2.8-14.1-3.1-18.9c-0.5-7-0.9-13.1,0.8-20.7
				c1.7-7.8,3.9-12.8,3.9-12.8c2.3-5.3,4.1-7.4,3.5-10.6c-0.8-4.1-4.9-6.3-5.5-6.6c-6.7-3.7-14,1.2-14.8,1.8
				c-7.4,5.1-11.3,7.9-11.3,7.9s-4.6,1.2-13.3,3.5c-2.9-0.7-5.7-1.5-8.6-2.2c-6.4-4.8-13.5-5.8-17.6-2.2c-3,2.6-3.7,7.2-4.3,11
				c-1,6.1,0,11.3,0.8,14.1c0.5,4.3,1,8.5,1.6,12.8c2.7,2.6,3,6.2,2,7.5c-1.1,1.2-4.2,1.1-6.6-1.8c-0.7-1.3-1.7-3.4-2.7-6.2
				c-2.8-7.8-1.9-10.9-4.3-19.4c-1.1-3.9-2.3-7.7-5.1-11.9c-1.5-2.3-3.9-5.7-8.2-7.9c-5.1-2.6-9.7-2-11.7-1.8
				c-5.3,0.7-8.9,3.3-9.8,4c-7.2,5.3-6,11.4-13.3,17.2c-4.2,3.4-9.5,5.1-10.2,4c-0.6-1.1,2.4-4.7,5.5-7.9c1.1-1.7,2.4-4.1,3.5-7
				c0.6-1.6,2-5.5,2.7-11c0.5-4.3,0.9-7.5,0-11.4c-1.1-4.5-3.2-7.5-4.7-9.2c-1.3-1-3.3-2.3-5.9-3.1c-7-2-13.2,1.7-16,3.5
				c-3.6,2.3-4.6,3.9-16.4,18c-6.9,8.2-6.1,7.2-7,8.4c-6.6,8.9-6.9,12.8-13.7,25.1c-6.7,12-7.7,10.4-12.1,19.8
				c-4.6,9.9-6.3,17.5-7.8,17.2c-1.2-0.3-1.7-5.8-1.2-10.1c0.1-0.6,0.2-1.1,0.3-1.7c1.2-5.9,4.1-10.8,4.8-12
				c5.2-8.7,7.8-13,8.2-14.1c0.8-2,2.5-6.6,6-12.1c1.5-2.3,2.7-3.9,3.5-5.5c0.8-1.5,1.3-3,1.4-4.8c0-0.8,0.2-4.6-2-7
				c-1.8-2-3.8-1.6-6.8-2.4c-3.8-1.1-4.5-3.6-10-7.7c-7.5-5.6-11.2-8.4-13.7-9.2c-5.2-1.9-6.6-0.6-14.1-3.1c-1.7-0.6-9.2-3.1-9-4.8
				c0.2-1.4,5.4-1.8,8.6-1.8c2.8,0.1,4.9,0.6,6.2,0.9c10.4,2.4,10.4,1.1,14.5,2.6c6.4,2.4,5.3,5.1,13.7,9.7
				c3.5,1.9,7.6,4.1,13.3,4.4c2.2,0.1,7.3,0.4,12.5-2.6c6.7-3.9,9.5-10.9,12.5-18.5c1.9-4.8,3.8-9.7,3.9-16.7
				c0.1-6.7-1.5-11.9-2.7-14.9c-1.8-2.6-4.4-6.3-7.8-10.6c-6.7-8.4-10-12.6-14.4-15.4c-5.2-3.3-10.8-4.2-19.1-5.7
				c-0.4-0.1-4.9-0.9-10.5-3.1c-4.2-1.6-6-2.9-7.4-4.8c-1.8-2.5-2.2-5.4-2.3-7c2.3,0.3,4.8,0.7,7.4,1.3c4.6,1.1,8.6,2.5,12.1,4
				c0,0,5.9,0.6,16.8,1.8c3.7,1.3,9,3.6,14.1,8.4c5.1,4.8,3.8,6.1,12.1,15.4c3.4,3.8,8.2,8.7,14.8,13.2l0,0c0,0,6.3,1.9,11.7,1.3
				c1.2-0.1,5.3-0.6,8.9-3.3c5.5-4.2,6.9-11.4,8.1-17.6c0.7-3.7,0.8-6.1,0.9-20c0.1-17.3,0-20.4,2-25.1c1.1-2.5,3.7-7.8,9-11
				c3.4-2,8.4-3.5,9.5-1.7c1.5,2.4-5.2,10.1-6,11c-3.4,6.3-4.2,11.4-4.3,15c-0.1,3.4,0.4,5.2,0.8,10.1c0.5,6.2,0.3,11.3,0,14.5
				c0.6,4,1.3,8.1,1.9,12.1c2.2,7.8,4.9,10,6.9,10.5c3.7,1,6-2.5,12.7-5.5c9-4.1,17.3-3.4,19.9-3.1c3.7,0.4,10.1,1.7,17.3,6.5
				c3.7,4,7.5,8,11.2,12c0.9,1.6,4.1,6.5,10,8.4c1.9,0.6,6,2,10,0c7.2-3.7,10-16.9,10-16.9l3.1-10.5c0.9-0.7,2.3-1.3,4.8-0.8
				C3913.2,1004.2,3913.1,1007.6,3913,1011z"/>
		</g>
	</g>
</g>
<g id="Ameo">
	<path class="st7" d="M4270.5,1281.4c0.2-6.8-6.8-7.8-9.1-16.8c-1.7-6.9,0.1-15.5,5.4-19.7c1.1-0.9,4.3-3.5,6.9-2.4
		c4.6,2,0,13.2,6.1,20.5c3.8,4.5,10.8,6.4,16.8,4.7c6.6-1.8,11.7-7.6,13-14.9c1.2-7.3,6-13.2,12.4-15.2c5.6-1.8,13.1-0.9,16.5,3.7
		c2.2,3,1.9,8.5,1.4,19.5c-0.2,4.6-0.6,7.2,0.7,10.7c1.4,3.9,4.1,6.5,6.1,8.1c4.9,2.1,8,1.6,10,0.7c6-2.7,6.1-11.1,11.8-12.1
		c1.7-0.3,4.2,0,5,1.5c1.5,2.9-5.1,7.8-11.9,19.4c-3.6,6.2-6.3,10.9-4.6,13.7c2.3,3.6,10.8,1.6,12.2,1.2c3.5-0.9,7.5-2.6,14.5-9.4
		c4-3.8,9.1-9.3,14.5-16.5c1.9-1.2,9.6-5.6,18.4-3.1c5,1.4,8.4,4.6,10.1,6.2c4.3,4,6.5,8.4,7.5,11c-0.6,3.2-7.6,4.4-9.7,2.9
		c-4.4-3-7-4.7-10.4-4.4c-2.9,0.3-4.9,1.9-7.5,4c-1.8,1.5-5.1,4.2-6.8,9.2c-0.9,2.7-1.1,5.1-1.1,6.6c0.1,1.3,0.5,3,1.7,4.5
		c1.9,2.2,4.6,2.1,12.2,3.6c6.3,1.2,8.3,1.4,8.9,2.9c0.9,2-1.1,4.9-2.8,6.9c-5.2,1.5-9.1,1.9-11.9,2c-1.2,0-3.4,0.1-4.3,1.5
		c-0.7,1.1-0.5,2.6,0,3.7c1.3,2.9,4.4,2.2,7.5,5.1c1.9,1.9,3.8,5.1,2.9,7c-1,1.9-5.1,2.4-10,0.7c-1.5-0.3-7.1-1.2-10.4,2.2
		c-2.1,2.1-2.3,5.1-2.5,11c-0.2,5.6,0.3,10.8,0.7,15.1c0.6,5.5,1,7.6,0,10.7c-0.8,2.4-2.8,6.3-5,6.3c-2.8-0.1-4.7-6.6-5.4-8.8
		c-2.9-9.9,0.7-13.7-2.5-20.6c-0.6-1.3-2.9-6.1-8.2-8.5c-0.4-0.2-7-3-12.9,0.4c-2.8,1.6-4.4,4.4-7.7,10c-3.6,6.2-3,7.2-5.4,9.4
		c-2.9,2.9-8,5.5-12.4,4.1c-1.6-0.5-3.2-2.1-6.4-5.1c-4.5-4.3-4.5-5.4-6.4-6c-3.5-1-7.8,1.4-10,4.5c-2.3,3.2-2.3,6.8-2.2,10.4
		c0.1,7.9,3.1,11.1,1.5,12.8c-1.9,2-8.7,0-12.2-4.4c-2.4-3-1.2-4.7-3.9-9.2c-1.4-2.3-3.6-5.9-7.9-7.4c-3.8-1.2-8.2-0.5-11.2,1.9
		c-2.9,2.3-2.2,4.3-5.4,8.7c-3,4.1-8.3,8.7-10.6,7.4c-3-1.6,1.9-10.8-2.5-15.4c-2.6-2.8-7.3-2.5-12.9-2.2c-7.9,0.4-11,2.9-12.5,1.1
		c-1.9-2.1,0.1-8.3,3.9-11.8c2.7-2.4,6.2-3,13.2-4c7.2-1.1,8.4-0.4,12.2-1.5c3.2-0.9,7.5-2.9,12.2-7.7c0.7-0.4,8.7-5.2,8.9-13.6
		c0-1.2,0.1-4.2-1.8-7c-3.6-5.3-11.1-5.1-15.5-5.1c-7.8,0.1-13.9,3.1-17.6,5.5c-3.9,4.4-8.3,5.8-10.2,4.3c-1.8-1.4-1.4-5.5,0-8.1
		c2.3-4.4,7.4-4.8,7.9-4.8c6.3-2,10.2-4.8,10-7.2c-0.1-1.3-1.4-2.2-2.1-2.7c-4-2.8-7.6-0.1-10.9-2c-3.6-2.1-5.2-8.9-3.1-11.2
		c2.2-2.5,6.6,1.6,14.6,0.2c6.5-1.1,10.9-5.2,12.6-6.9C4266.3,1290.3,4270.4,1286.5,4270.5,1281.4z"/>
</g>
<g id="Rod">
	<path class="st8" d="M4741.9,1219.4c2.1-1.7,6.1-4.8,11.9-4.5c4.6,0.2,7.8,2.4,9.1,3.3c2.3,1.6,3.7,3.4,4.6,4.6
		c4.1,6,4.8,12.3,5.9,16.9c1.7,7.1,5.6,12.5,13.4,23.4c1.3,1.8,10.1,14,12.1,13.1c1.2-0.5-0.2-5.6-1.2-8.3c-1.1-2.9-1.7-3.1-2.4-5.4
		c-1.3-4.2-0.7-9.1,0.7-9.3c1.7-0.3,4.6,6.3,5.8,9c1.6,3.6,2.5,6.6,3.2,9.1c1.2,4.1,1.7,7,1.9,7.9c1.3,6.4,5.4,10.2,12.5,20.1
		c9.5,13.2,10.4,17.5,18.3,23.4c4.4,3.3,8,4.9,11.5,4.2c3.5-0.7,5.4-3.4,5.9-4.2c2.3-3.6,1.1-7.6,0.2-10.7c-0.6-2-1.8-5.8-5.4-9
		c-3.4-3-6.4-3.1-6.9-5.3c-0.4-2,1.3-4,3.1-5c2.4-1.3,5.5-1.1,8,0.5c1.5,3.9,2.4,6.5,2.4,6.5l0,0c0,0,1.9,4.8,4.4,8.2
		c1.2,1.6,3.9,4.7,8.1,6.8c5,2.5,7.1,1.1,11.4,3.6c3,1.7,4.5,3.7,6.8,6.6c2.1,2.8,6.4,8.6,6.8,16.1c0.2,5.1-1.5,7.6,0.6,9.8
		c1.7,1.7,4.6,2.2,6.8,2c4-0.5,4.8-3.4,8.4-4.4c2.1-0.6,5.5-0.7,10.9,2.2c6.4,3.9,11.4,7.3,14.7,9.7c6.7,4.7,8.6,6.5,13.4,8.9
		c3.1,1.5,3.1,1.2,13.3,5.1c9.2,3.5,6.1,2.6,17.2,6.9c8.7,3.4,11.2,4.2,11.1,5.4c-0.1,1.7-5.1,3.1-9.6,3c-4.3,0-7.1-1.4-14.1-4.6
		c-12.2-5.5-9.8-4-14.9-6.5c-7.5-3.7-13-6.4-19.1-11.1c-9.2-7-11.7-12.2-17.2-12c-1.8,0.1-4.7,0.8-6.8,2.9c-0.6,0.6-2.3,2.4-1.8,4.1
		c0.5,1.6,2.4,1.9,5.5,4.1c1.9,1.3,3.2,2.6,4,3.5c1,0.9,2.8,2.4,5.1,4c8.1,5.6,13.4,6.3,21.6,11.2c2.1,1.3,5.3,3.3,8.8,6.4
		c3.1,2.9,6.4,5.8,9.7,8.7c7.7,6.7,15.3,13.1,22.9,19c4.6,3.1,10.8,8.1,16.5,15.2c4.2,5.3,6.9,10.3,8.8,14.3c0.4,1,2.1,5.6,0.5,6.6
		c-1.7,1-6.3-2.5-8.1-3.9c-2.7-2.1-5-4.5-9.9-11c-1.6-2.2-3.8-5.1-6.2-8.7c-5.6-5-11.1-10-16.7-15c-4.6-4.2-9.2-8.3-13.8-12.5
		c-4.4-4.4-10.3-9.5-17.7-14.3c-4.6-3-9.1-5.4-13.2-7.4c-3.5-1.3-8.3-3.6-13.2-7.4c-4.1-3.2-6.9-6.4-8.9-9c-1.9-1-4.4-2.3-5.1-1.7
		c-1.1,0.9,2.3,5.4,2.9,6.2c3.3,4.4,6.9,6.9,8.9,8.5c2.3,1.8,5.4,5.1,11.7,11.9c4.5,4.9,10.9,12.3,17.8,22.7c6,9.1,12,18.3,18,27.4
		c4.7,6.4,7.6,12.1,9.4,16.3c2.2,5.2,3.2,9.1,4,12c1.6,6.2,1.6,9.4,1.3,12.1c0,0.1-0.4,2.9-2.1,6.2c-1,1.9-1.6,3-2.7,3.3
		c-2.6,0.6-5.6-3.4-6-3.8c-1.6-2.1-2-4.2-2.8-8.4c-0.5-2.5-0.9-4.9-0.9-8c0.1-3.8,0.9-6.4,1.1-7.6c1.4-6.4-4.2-12.9-9.9-20.8
		c-10.3-14.1-6.2-11.9-16.9-26.5c-5.2-7-11.7-15.1-19.7-23.7c-7.5-6.3-12.1-12.1-15.1-16.4c-1.5-2.1-6.3-9.4-12.8-15.7
		c-1.8-1.7-3.6-3.3-6.3-4.6c-3.8-1.8-5.8-1.4-9-2.8c-2.2-1-5-2.9-7.5-7.3c-0.5-1.6-1.7-4.5-4.7-6.9c-1.5-1.2-5.2-4.2-8.9-3.1
		c-2.1,0.6-3.9,2.3-4.3,4.5c-0.3,1.7,0.3,3.6,1.8,4.9c2.8,2.5,6.6,0.6,9.6,3.4c0.3,0.3,1.5,1.4,1.6,2.9c0.2,2.1-1.6,3.9-3.5,4.7
		c-2.7,1.1-5.5,0-6.8-0.6c-3.1-1.3-4.8-3.5-5.8-4.9c-2-2.7-2.2-4.6-4-10.3c-1.3-4.1-2-6.2-2.7-7.8c-3.2-7-6.7-6.9-12.7-15.2
		c-4-5.6-4.5-8.7-7.7-9.3c-2.7-0.6-5.4,1.1-7.3,2.6c-0.6,0.7-3.3,3.7-2.2,6.6c0.7,1.9,2.8,3.2,4.7,4.3c2.8,1.7,4.2,1.6,4.9,2.9
		c0.8,1.5,0.1,3.8-1.5,4.9c-2.4,1.6-6.1-0.1-7.4-0.7c-2.9-1.3-4.3-3.5-4.9-4.4c-3.5-3-4.1-5.6-4.3-6.8c-0.3-2.2,0.5-4.2,2-8.1
		c1.5-3.8,2.1-4,2-5.2c-0.2-2-2.5-4.7-12.6-7.7c-3.6-1.5-8.4-3.7-13.9-6.7c-3.7-2-9.5-5.3-16.2-10.1c-7.8-5.6-10.7-8.8-12.9-12.2
		c-1.1-1.8-4.1-6.3-2.5-7.9c1.2-1.2,4.8-0.3,7.2,1c3.2,1.8,3.8,4.1,6.3,7.1c1.7,2,4.4,4.7,9.1,7.2c6.7,4,12.4,7.5,16.8,10.1
		c18.3,10.9,10.1,5.7,13.5,7.8c6.9,4.3,9.4,6.3,10.6,5.5c1.6-1-0.2-6.1-2.6-9.9c-3-4.7-6.6-6.8-10-9.5c-6.3-4.8-9.5-9.6-14.9-17.5
		c-4.1-6-8.1-11.8-11.5-20.1c-1.9-4.7-3.1-8.8-7.5-11.4c-3.4-2.1-7.2-2.3-9.9-2.2c-5.3,0.6-9.5-0.4-10.3-2.2
		C4736.8,1223.4,4740,1220.9,4741.9,1219.4z"/>
</g>
<g id="Hyper_Rod_拷貝">
	<path class="st9" d="M5454.9,1364.5c1.4-2.2,4-6.3,3.2-12.3c-0.6-4.6-2.9-7.9-3.8-9.2c-1.7-2.3-3.4-3.7-4.7-4.5
		c-5.9-4.1-11.9-4.5-16.2-5.6c-6.8-1.6-12.1-5.4-22.8-13.1c-1.8-1.3-13.9-9.9-13.2-12c0.4-1.2,5.2,0,7.8,1c2.8,1,3,1.7,5.2,2.3
		c4,1.2,8.5,0.5,8.6-0.9c0.1-1.7-6.3-4.5-8.9-5.7c-3.5-1.5-6.4-2.3-8.8-3c-3.9-1.1-6.7-1.6-7.5-1.7c-6.1-1.2-10-5.2-19.7-12.2
		c-13-9.4-17.1-10.2-23.3-18.1c-3.5-4.4-5.2-8.1-4.9-11.6c0.4-3.6,2.7-5.6,3.4-6.1c3.2-2.5,7-1.3,10-0.4c2,0.6,5.6,1.7,8.8,5.3
		c3.1,3.4,3.4,6.4,5.5,6.9c1.9,0.4,3.6-1.4,4.4-3.3c1-2.4,0.5-5.7-1.2-8.2c-3.7-1.4-6.2-2.3-6.2-2.3l0,0c0,0-4.6-1.8-8-4.3
		c-1.6-1.2-4.7-3.8-7-8.1c-2.7-5-1.6-7.2-4.3-11.5c-1.8-3-3.8-4.5-6.7-6.7c-2.8-2.1-8.5-6.3-15.5-6.5c-4.8-0.1-6.9,1.8-9.2-0.4
		c-1.7-1.6-2.5-4.6-2.4-6.9c0.1-4.1,2.7-4.9,3.4-8.7c0.4-2.2,0.2-5.7-3-11.1c-4.2-6.4-7.8-11.4-10.2-14.8c-4.9-6.7-6.7-8.6-9.4-13.5
		c-1.7-3.1-1.4-3.1-5.8-13.4c-4-9.3-2.9-6.2-7.9-17.4c-3.9-8.7-4.8-11.3-6-11.2c-1.5,0.1-2.4,5.3-2,9.8c0.4,4.4,1.9,7.2,5.4,14.2
		c6.1,12.3,4.5,9.9,7.3,15c4.1,7.5,7,13,11.9,19.1c7.3,9.2,12.3,11.6,12.5,17.2c0.1,1.8-0.3,4.9-2.1,7c-0.6,0.7-2,2.4-3.7,2
		c-1.5-0.4-2-2.4-4.3-5.5c-1.4-1.9-2.7-3.1-3.6-3.9c-0.9-1-2.4-2.8-4.1-5.1c-5.9-8.1-6.9-13.5-12.2-21.7c-1.3-2.1-3.5-5.3-6.7-8.8
		c-3-3.1-5.9-6.4-8.9-9.7c-6.9-7.7-13.4-15.3-19.6-22.8c-3.3-4.7-8.4-10.8-15.5-16.4c-5.2-4.1-10.1-6.8-14-8.6c-1-0.4-5.4-2-6.1-0.3
		c-0.8,1.8,2.8,6.3,4.3,8.2c2.2,2.7,4.6,5,11.1,9.8c2.1,1.6,5.1,3.7,8.6,6.1c5.1,5.5,10.2,11.1,15.4,16.6c4.3,4.6,8.5,9.1,12.8,13.7
		c4.5,4.4,9.7,10.2,14.8,17.7c3.2,4.6,5.8,9.1,8,13.2c1.5,3.5,4,8.3,8,13.2c3.3,4.1,6.5,6.9,9.1,8.8c1.1,1.9,2.5,4.4,2,5.2
		c-0.8,1.1-5.2-2.2-6-2.8c-4.4-3.3-7-6.8-8.6-8.8c-1.8-2.3-5.2-5.4-12.1-11.6c-4.9-4.5-12.4-10.8-22.6-17.6c-9-5.9-18-11.7-27-17.6
		c-6.3-4.6-11.9-7.4-16-9.2c-5-2.1-8.7-3.1-11.5-3.7c-5.9-1.4-8.9-1.4-11.4-1c-0.1,0-2.7,0.5-5.6,2.3c-1.7,1.1-2.7,1.7-2.8,2.9
		c-0.3,2.6,3.6,5.7,4,6c2,1.5,4.1,1.9,8.1,2.7c2.4,0.4,4.6,0.8,7.5,0.7c3.6-0.2,5.9-1.1,7-1.3c5.8-1.6,12.3,3.9,20.2,9.6
		c14,10.1,11.6,6,26.1,16.5c7,5.1,15,11.5,23.7,19.5c6.5,7.4,12.3,12.1,16.5,15c2.1,1.4,9.3,6.2,15.7,12.6c1.8,1.8,3.4,3.6,4.8,6.3
		c2,3.8,1.8,5.9,3.3,9.1c1.1,2.2,3.1,5,7.4,7.4c1.5,0.5,4.3,1.6,6.8,4.6c1.3,1.5,4.3,5.2,3.6,9c-0.4,2.1-1.8,4.1-3.8,4.5
		c-1.5,0.3-3.4-0.2-4.7-1.7c-2.6-2.8-1.1-6.7-3.9-9.7c-0.3-0.3-1.4-1.5-2.9-1.5c-2-0.1-3.5,1.8-4.1,3.7c-0.8,2.8,0.5,5.6,1.1,6.9
		c1.5,3.2,3.7,4.8,5,5.8c2.7,1.9,4.4,2.2,9.9,3.9c4,1.2,5.9,1.8,7.5,2.5c6.8,3,7,6.7,15.2,12.5c5.6,3.9,8.5,4.4,9.3,7.6
		c0.7,2.8-0.6,5.6-1.8,7.5c-0.6,0.7-3.2,3.4-6,2.4c-1.8-0.7-3.2-2.8-4.4-4.6c-1.9-2.9-1.8-4.2-3.1-4.9c-1.5-0.8-3.6,0-4.4,1.7
		c-1.3,2.5,0.6,6.2,1.2,7.5c1.5,2.9,3.6,4.3,4.5,4.9c3,3.5,5.6,4.1,6.7,4.2c2.1,0.2,3.9-0.6,7.4-2.3c3.4-1.6,3.6-2.2,4.7-2.2
		c1.9,0.2,4.6,2.4,8.2,12.7c1.7,3.6,4.2,8.5,7.4,14c2.2,3.8,5.8,9.6,10.8,16.3c5.8,7.8,9.1,10.7,12.4,12.9c1.7,1.1,6.2,4,7.5,2.3
		c1-1.3-0.2-4.9-1.6-7.3c-1.9-3.2-4.1-3.8-7.1-6.2c-2-1.6-4.8-4.4-7.4-9.1c-4.3-6.7-8-12.4-10.8-16.9c-11.7-18.4-6.1-10.1-8.4-13.6
		c-4.5-6.9-6.6-9.4-6-10.6c0.8-1.6,5.7,0.1,9.4,2.4c4.6,2.9,6.9,6.5,9.7,10c5,6.3,9.7,9.4,17.5,14.8c5.9,4,11.6,7.9,19.7,11.2
		c4.6,1.9,8.5,2.9,11.3,7.3c2.2,3.4,2.7,7.3,2.8,10c-0.1,5.5,1.1,9.7,2.9,10.4C5451.6,1369.8,5453.7,1366.4,5454.9,1364.5z"/>
	<path class="st9" d="M5171.7,1102.9c2.7-1.9,7.5-5.4,14.4-4.9c5.4,0.4,9.2,3,10.7,4.1c2.7,1.9,4.2,4,5.2,5.5
		c4.6,7,5.1,14.3,6.2,19.7c1.7,8.3,6.1,14.6,14.9,27.3c1.5,2.1,11.4,16.4,13.8,15.4c1.5-0.6,0.1-6.5-1-9.6c-1.1-3.4-1.9-3.6-2.6-6.3
		c-1.3-4.9-0.4-10.5,1.3-10.7c2-0.3,5.2,7.4,6.5,10.6c1.7,4.2,2.6,7.7,3.3,10.6c1.2,4.7,1.7,8.1,1.9,9.2c1.3,7.4,5.9,11.9,13.9,23.5
		c7,10,8.9,18.7,15.6,22.9c2.4,1.5,5,2.2,5.9,2.4c2.4,0.6,7.4,1.8,9.7-0.6c1.9-1.9,1.2-5.4,0.7-7.8c-0.4-1.7-1-3-1.7-4.7
		c-1.6-3.5-2.2-3.4-2.7-5.2c-1.1-3.5,0.2-6.6,0.8-8.2c0.9-2.3,1.7-4.6,4-5.7c2.9-1.4,6.6-1.1,9.6,0.9c1.5,4.5,2.6,7.5,2.6,7.5
		c0.3,3.3,1.4,7.6,4.9,9.6c4,2.2,7.4-1,12.5,0.9c3.9,1.5,3.7,4.1,10.3,11.6c4.8,5.5,5.1,4.2,7.7,7.9c2.4,3.3,7.3,10,7.3,18.7
		c0,5.9-2.2,8.7,0.2,11.3c1.9,2,5.4,2.7,8,2.5c4.8-0.4,5.8-3.7,10.2-4.9c2.6-0.7,6.6-0.7,12.9,2.9c7.4,4.7,13.2,8.8,17.1,11.6
		c7.8,5.6,10,7.7,15.6,10.6c3.6,1.9,3.6,1.5,15.6,6.3c10.9,4.3,7.2,3.1,20.2,8.5c10.2,4.2,13.2,5.2,13,6.6
		c-0.2,1.9-6.3,3.4-11.6,3.2c-5.1-0.2-8.4-1.9-16.6-5.7c-14.3-6.7-11.5-4.8-17.5-7.9c-8.7-4.5-15.2-7.8-22.2-13.3
		c-10.6-8.3-13.3-14.4-20-14.3c-2.1,0-5.7,0.8-8.2,3.1c-0.8,0.7-2.9,2.7-2.4,4.7c0.5,1.9,2.8,2.3,6.4,4.9c2.2,1.6,3.6,3.1,4.6,4.2
		c1.2,1.1,3.2,2.8,5.9,4.7c9.3,6.7,15.7,7.6,25.2,13.5c2.4,1.5,6.1,4,10.2,7.6c3.6,3.4,7.3,6.9,11.2,10.3c8.9,8,17.7,15.5,26.4,22.6
		c5.4,3.8,12.5,9.6,19,18c4.7,6.2,7.8,12,9.8,16.7c0.4,1.2,2.2,6.5,0.2,7.6c-2.1,1.2-7.4-3-9.5-4.7c-3.2-2.5-5.8-5.4-11.2-13
		c-1.8-2.5-4.2-6-7-10.2c-6.4-5.9-12.8-11.9-19.2-17.8c-5.3-4.9-10.6-9.9-15.8-14.8c-5.1-5.2-11.8-11.2-20.5-17
		c-5.4-3.6-10.6-6.5-15.4-8.9c-4.1-1.6-9.7-4.4-15.4-8.9c-4.7-3.8-8-7.6-10.1-10.6c-2.2-1.3-5.2-2.8-6.1-2.1
		c-1.3,1.1,2.5,6.3,3.2,7.2c3.8,5.2,7.9,8.2,10.2,10c2.6,2.1,6.2,6.1,13.4,14.1c5.2,5.8,12.4,14.5,20.2,26.6
		c6.7,10.7,13.4,21.4,20.1,32.1c5.3,7.5,8.5,14.2,10.4,19.1c2.4,6.1,3.4,10.6,4.1,14c1.6,7.2,1.5,10.9,0.9,14c0,0.2-0.7,3.4-2.8,7.1
		c-1.3,2.2-2,3.4-3.4,3.7c-3.1,0.6-6.6-4.1-6.9-4.5c-1.8-2.4-2.2-4.9-3-9.8c-0.5-2.9-0.9-5.7-0.7-9.3c0.3-4.4,1.3-7.4,1.7-8.7
		c2-7.3-4.3-15-10.8-24.3c-11.6-16.6-6.8-13.9-18.8-31.1c-5.8-8.3-13.2-17.8-22.4-27.8c-8.6-7.4-13.9-14.3-17.2-19.4
		c-1.6-2.5-7-11-14.5-18.5c-2.1-2.1-4.1-3.9-7.2-5.4c-4.5-2.2-6.9-1.7-10.6-3.5c-2.5-1.2-5.9-3.5-8.6-8.6c-0.5-1.9-1.8-5.2-5.3-8.1
		c-1.8-1.5-6-4.9-10.5-3.9c-2.5,0.6-4.8,2.5-5.4,5c-0.4,1.9,0.2,4.2,1.9,5.7c3.2,3,7.9,0.9,11.3,4.2c0.4,0.4,1.7,1.7,1.7,3.4
		c0.1,2.4-2.1,4.5-4.4,5.3c-3.3,1.2-6.5-0.2-8.1-0.9c-3.7-1.6-5.6-4.2-6.7-5.8c-2.2-3.2-2.4-5.3-4.3-12c-1.4-4.8-2-7.2-2.8-9.1
		c-3.4-8.2-7.7-8.1-14.4-17.9c-4.5-6.6-5-10.1-8.8-11c-3.2-0.7-6.6,1.1-8.8,2.8c-0.8,0.8-4.1,4.2-2.9,7.5c0.8,2.2,3.2,3.8,5.3,5.1
		c3.3,2.1,4.9,1.9,5.7,3.5c0.9,1.8-0.1,4.4-2.1,5.6c-3,1.8-7.3-0.2-8.8-1c-3.3-1.6-5-4.1-5.7-5.2c-4-3.5-4.7-6.6-4.8-8
		c-0.2-2.6,0.8-4.9,2.8-9.3c1.9-4.3,2.7-4.6,2.6-5.9c-0.1-2.3-2.8-5.5-14.7-9.2c-4.2-1.9-9.8-4.6-16.3-8.2
		c-4.4-2.4-11.1-6.4-18.9-12.2c-9-6.6-12.4-10.5-14.8-14.4c-1.3-2.1-4.5-7.4-2.6-9.1c1.5-1.3,5.8-0.1,8.5,1.4
		c3.7,2.1,4.4,4.8,7.2,8.4c1.9,2.4,5,5.6,10.5,8.5c7.8,4.8,14.4,8.9,19.6,12.1c21.3,13.1,11.8,6.9,15.8,9.4c8,5.1,10.9,7.5,12.3,6.7
		c1.9-1.1,0-7-2.6-11.4c-3.3-5.5-7.5-8.1-11.5-11.2c-7.2-5.8-10.9-11.3-17-20.6c-4.6-7-9.1-13.8-12.8-23.5
		c-2.1-5.5-3.3-10.2-8.3-13.4c-4-2.5-8.5-2.8-11.7-2.8c-6.4,0.5-11.4-0.7-12.1-2.9C5165.4,1107.4,5169.4,1104.5,5171.7,1102.9z"/>
	<path class="st9" d="M5235.9,1166.8c-0.7,2.1-2,6-0.3,11c1.3,3.9,3.8,6.5,4.8,7.5c1.8,1.8,3.4,2.8,4.6,3.4c5.5,2.8,10.3,2.5,14,2.9
		c5.7,0.5,10.7,3.2,20.7,8.6c1.6,0.9,12.9,6.9,12.8,8.8c-0.1,1.1-4.2,0.6-6.4,0.1c-2.4-0.5-2.7-1.1-4.6-1.4
		c-3.4-0.5-6.9,0.6-6.7,1.8c0.2,1.5,5.8,3.2,8.2,3.9c3,0.9,5.5,1.3,7.6,1.5c3.3,0.5,5.6,0.5,6.3,0.6c5.1,0.3,8.9,3.3,18,8.2
		c12.1,6.6,15.6,6.8,22,12.8c3.6,3.4,5.7,6.4,6.1,9.4c0.4,3.1-1.1,5.2-1.6,5.7c-2.1,2.5-5.3,2-7.9,1.6c-1.7-0.3-4.8-0.8-8-3.5
		c-3.1-2.6-3.9-5.2-5.7-5.3c-1.6-0.1-2.6,1.7-2.9,3.4c-0.3,2.2,0.6,5,2.5,6.9c3.2,0.7,5.4,1.2,5.4,1.2s4,1,7.2,2.7
		c1.5,0.8,4.5,2.7,7.1,6.2c3.1,4,2.7,6,5.6,9.5c2,2.4,3.9,3.4,6.6,5c2.6,1.5,8,4.5,13.6,3.7c3.8-0.5,5.2-2.4,7.4-0.8
		c1.7,1.2,2.8,3.7,3.2,5.7c0.7,3.5-1.2,4.6-1.1,7.9c0.1,1.9,0.9,4.9,4.5,9.2c4.5,5,8.3,8.9,10.9,11.6c5.2,5.2,7,6.7,10,10.5
		c1.9,2.5,1.7,2.5,7.2,10.9c5,7.6,3.5,5,9.6,14.1c4.7,7.1,6,9.2,6.9,9c1.2-0.3,0.9-4.9-0.3-8.8c-1.1-3.8-2.9-6-7-11.7
		c-7.2-9.9-5.4-8-8.6-12.1c-4.6-6-8.1-10.4-13.1-15.1c-7.5-7.1-12-8.5-13.2-13.4c-0.4-1.6-0.6-4.2,0.4-6.3c0.3-0.6,1.1-2.4,2.6-2.1
		c1.3,0.2,2,1.9,4.4,4.3c1.5,1.4,2.8,2.4,3.6,3c0.9,0.8,2.5,2.1,4.3,3.9c6.2,6.3,8.1,10.8,13.8,17.3c1.5,1.7,3.8,4.2,7,6.8
		c2.9,2.4,5.9,4.8,8.9,7.3c7,5.8,13.6,11.6,19.9,17.4c3.5,3.6,8.7,8.4,15.4,12.4c4.9,2.9,9.3,4.7,12.8,5.7c0.9,0.2,4.6,1.1,4.9-0.5
		c0.3-1.7-3.4-5.1-5-6.5c-2.3-2.1-4.6-3.8-10.7-7.1c-2-1.1-4.7-2.6-8-4.2c-5.1-4.2-10.2-8.4-15.4-12.5c-4.3-3.4-8.5-6.9-12.8-10.3
		c-4.4-3.3-9.6-7.7-15.1-13.5c-3.4-3.6-6.4-7.2-8.8-10.5c-1.9-2.8-4.8-6.7-8.8-10.5c-3.4-3.1-6.5-5.2-8.9-6.5
		c-1.3-1.5-2.8-3.5-2.5-4.3c0.4-1,4.5,1.3,5.3,1.7c4.1,2.3,6.9,5.1,8.5,6.6c1.9,1.8,5.2,4,11.8,8.6c4.8,3.3,11.9,7.8,21.3,12.5
		c8.3,4,16.5,8,24.8,12c5.9,3.2,10.9,5,14.4,6c4.4,1.3,7.5,1.6,9.9,1.8c5,0.5,7.4,0.1,9.2-0.5c0.1,0,2-0.8,4-2.7
		c1.2-1.1,1.8-1.8,1.7-2.8c-0.2-2.3-3.9-4.5-4.3-4.7c-1.9-1.1-3.6-1.2-6.9-1.3c-2-0.1-3.8-0.2-6.1,0.3c-2.8,0.6-4.5,1.6-5.3,2
		c-4.3,2.1-10.6-1.9-17.9-5.9c-13.1-7.1-10.3-3.8-23.9-11.1c-6.5-3.6-14.1-8.1-22.5-14c-6.5-5.7-12-9-16-11c-2-1-8.6-4.2-14.9-9
		c-1.7-1.3-3.4-2.7-5-4.8c-2.8-3.7-4.2-5.5-4.4-7.4c-0.3-3.2,2.5-4.4,1.7-6.3c-0.5-1.1-2.1-2.2-6.4-2.4c-1.4-1.3-3.6-3.1-6.9-4.4
		c-3.5-1.4-5.9-1.3-6.6-2.9c-0.6-1.5,0.5-3.7,2.2-4.4c1.1-0.5,2.7-0.2,4.1,0.9c2.6,2.1,2.2,5.7,5,7.9c0.3,0.3,1.4,1.1,2.6,1
		c1.6-0.1,2.5-1.9,2.6-3.7c0.1-2.5-1.4-4.8-2.2-5.9c-1.8-2.6-3.8-3.7-5.1-4.4c-2.5-1.4-3.9-1.3-8.6-2.1c-3.4-0.6-5.1-0.9-6.4-1.3
		c-6-1.8-6.8-4.9-14.5-9c-5.2-2.7-7.6-2.8-8.9-5.5c-1.1-2.3-0.6-4.9,0-6.7c0.3-0.7,1.9-3.4,4.3-2.8c1.6,0.4,3.1,2,4.4,3.5
		c2,2.2,2.2,3.4,3.4,3.9c1.3,0.5,2.8-0.5,3.2-2c0.6-2.4-1.6-5.3-2.4-6.3c-1.7-2.3-3.7-3.3-4.5-3.7c-3.1-2.7-5.2-2.9-6.1-2.8
		c-1.7,0.1-3,1-5.4,2.8s-2.4,2.4-3.3,2.4c-1.5,0.1-4.1-1.6-8.9-10c-2-2.9-4.9-6.8-8.6-11.3c-2.5-3-6.4-7.6-11.7-12.8
		c-6.1-6-9.3-8.2-12.3-9.6c-1.6-0.8-5.7-2.7-6.4-1.1c-0.6,1.2,1.1,4.3,2.6,6.1c2.1,2.6,4,2.8,6.9,4.5c1.9,1.2,4.6,3.2,7.6,7
		c4.7,5.3,8.7,9.8,11.8,13.3c12.8,14.5,6.8,8,9.3,10.8c4.9,5.5,7,7.3,6.8,8.5c-0.3,1.5-4.6,0.6-7.9-1c-4.2-2-6.7-4.8-9.6-7.5
		c-5.2-4.8-9.5-7-16.7-10.7c-5.5-2.8-10.8-5.5-17.8-7.3c-4-1.1-7.3-1.5-10.3-5c-2.4-2.7-3.5-6-4.1-8.3c-0.9-4.7-2.7-8.3-4.3-8.7
		C5237.6,1161.8,5236.5,1165,5235.9,1166.8z"/>
	<path class="st9" d="M5428.5,1364.9c-2.3,1-6.4,2.7-11.9,1.5c-4.3-0.9-7.2-3.2-8.3-4.1c-2-1.6-3.1-3.2-3.8-4.4
		c-3.2-5.3-3.1-10.3-3.6-14.1c-0.8-5.8-3.9-10.7-10-20.3c-1-1.6-8-12.5-10-12.2c-1.2,0.2-0.5,4.4,0.1,6.6c0.7,2.4,1.3,2.7,1.7,4.6
		c0.7,3.5-0.4,7.2-1.8,7.1c-1.6-0.1-3.7-5.7-4.5-8c-1.1-3-1.6-5.6-1.9-7.6c-0.6-3.3-0.8-5.7-0.9-6.5c-0.5-5.2-3.9-8.8-9.5-17.6
		c-7.5-11.8-7.9-15.3-14.7-21.2c-3.8-3.3-7.1-5.2-10.5-5.2s-5.6,1.7-6.2,2.3c-2.7,2.4-2,5.7-1.4,8.3c0.3,1.7,1,4.8,4.1,7.9
		c2.9,2.9,5.7,3.4,5.9,5.3c0.2,1.6-1.7,2.9-3.6,3.4c-2.4,0.6-5.4-0.1-7.6-1.8c-0.9-3.2-1.5-5.4-1.5-5.4l0,0c0,0-1.2-4-3.2-7.1
		c-1-1.5-3.1-4.3-6.9-6.7c-4.4-2.7-6.6-2.1-10.5-4.7c-2.7-1.8-3.9-3.6-5.6-6.3c-1.7-2.5-5.1-7.7-4.5-13.6c0.4-4,2.4-5.6,0.6-7.7
		c-1.4-1.6-4.1-2.5-6.3-2.7c-3.9-0.3-5,1.8-8.5,2c-2.1,0.1-5.4-0.4-10.2-3.5c-5.6-4.1-10-7.6-12.9-10c-5.8-4.8-7.5-6.4-11.8-9.1
		c-2.7-1.7-2.8-1.5-12.1-6.2c-8.4-4.2-5.5-3-15.6-8.2c-7.9-4.1-10.2-5.1-10-6.1c0.3-1.3,5.3-1.5,9.5-0.7c4.1,0.8,6.6,2.3,12.9,5.9
		c11,6.3,8.9,4.7,13.4,7.5c6.7,4.1,11.6,7.1,16.9,11.8c7.9,7,9.7,11.4,15,12.1c1.7,0.2,4.6,0.2,6.8-1.1c0.7-0.4,2.5-1.4,2.2-2.9
		c-0.3-1.3-2.1-1.9-4.8-4.1c-1.6-1.3-2.7-2.6-3.4-3.4c-0.9-0.9-2.4-2.3-4.4-3.9c-7-5.7-12-7.1-19.3-12.3c-1.9-1.3-4.6-3.5-7.7-6.4
		c-2.7-2.8-5.4-5.6-8.2-8.4c-6.5-6.5-13.1-12.7-19.6-18.6c-4.1-3.2-9.4-8-13.9-14.5c-3.4-4.8-5.4-9.1-6.7-12.5
		c-0.3-0.9-1.3-4.7,0.4-5.2c1.8-0.5,5.7,3,7.3,4.4c2.4,2.1,4.3,4.3,8.1,10.2c1.3,1.9,3,4.6,4.9,7.7c4.7,4.8,9.4,9.6,14.1,14.4
		c3.9,4,7.8,8,11.6,12c3.7,4.2,8.7,9,15.2,14.1c4.1,3.1,8,5.7,11.7,7.9c3.1,1.6,7.5,4.2,11.7,7.9c3.5,3.1,5.9,6.1,7.4,8.4
		c1.7,1.1,3.9,2.5,4.7,2.1c1.1-0.6-1.5-4.5-2-5.3c-2.7-4-5.7-6.5-7.5-8c-2-1.7-4.6-4.9-9.7-11.2c-3.7-4.6-8.9-11.4-14.3-20.5
		c-4.6-8.1-9.2-16.2-13.9-24.2c-3.7-5.7-5.8-10.6-7-14.2c-1.5-4.4-2-7.6-2.3-10c-0.7-5.1-0.4-7.6,0.3-9.6c0-0.1,0.8-2.2,2.8-4.4
		c1.2-1.3,1.9-2.1,3-2.1c2.5,0,5,3.6,5.2,3.9c1.3,1.9,1.4,3.6,1.7,7c0.2,2,0.3,3.9-0.1,6.4c-0.5,3-1.6,4.8-2,5.7
		c-2.1,4.7,2.4,10.7,7,17.8c8.2,12.7,4.4,10.2,12.9,23.4c4.1,6.3,9.3,13.7,16,21.6c6.4,6.1,10.1,11.4,12.4,15.2
		c1.1,1.9,4.9,8.4,10.3,14.3c1.5,1.7,3,3.2,5.4,4.6c3.4,2,5.4,2,8.2,3.6c2,1.1,4.4,3.1,6.3,6.9c0.3,1.3,1.1,3.8,3.7,6.1
		c1.3,1.2,4.4,4.1,8.1,3.9c2-0.1,4-1.1,4.7-2.7c0.5-1.2,0.1-2.9-1.1-4.1c-2.4-2.4-6.3-1.6-8.7-4.2c-0.3-0.3-1.2-1.3-1.2-2.5
		c0.1-1.6,2-2.8,3.9-3.1c2.7-0.4,5.2,0.9,6.4,1.6c2.8,1.5,4.2,3.5,5,4.8c1.6,2.4,1.6,3.9,2.6,8.6c0.8,3.4,1.1,5.1,1.6,6.5
		c2.2,6,5.6,6.4,10.3,13.9c3.2,5,3.3,7.5,6.2,8.5c2.5,0.9,5.3,0.1,7.3-0.8c0.7-0.4,3.6-2.3,2.9-4.7c-0.4-1.6-2.3-3-3.9-4.1
		c-2.5-1.8-3.8-1.9-4.3-3.1c-0.6-1.3,0.4-3,2.1-3.5c2.5-0.9,5.8,1.1,7,1.7c2.6,1.5,3.7,3.4,4.2,4.2c3,2.9,3.3,5,3.3,6
		c0,1.8-1,3.2-2.9,5.9c-1.9,2.7-2.5,2.8-2.5,3.7c0,1.6,1.8,4.1,11.1,8.1c3.2,1.8,7.6,4.3,12.5,7.5c3.3,2.2,8.5,5.7,14.3,10.6
		c6.7,5.6,9.2,8.6,10.9,11.6c0.9,1.5,3.1,5.6,1.4,6.5c-1.3,0.7-4.6-0.6-6.7-2c-2.9-1.9-3.2-3.8-5.1-6.6c-1.3-1.9-3.7-4.4-7.9-7.1
		c-5.9-4.2-10.9-7.8-14.9-10.7c-16.2-11.5-9-6.1-12-8.3c-6.1-4.5-8.2-6.4-9.4-6c-1.6,0.5-0.5,4.8,1.3,8.1c2.3,4.2,5.5,6.4,8.4,9
		c5.4,4.8,7.9,9,12.2,16.1c3.2,5.3,6.3,10.5,8.6,17.5c1.3,4,1.9,7.3,5.8,10.1c3,2.2,6.6,3,9.2,3.3c5.2,0.4,9.1,1.9,9.5,3.4
		C5433.9,1362.6,5430.6,1364,5428.5,1364.9z"/>
</g>
<g id="圖層_10">
	<g>
		<text transform="matrix(0.8643 0 0 1 483.4111 1387.2568)" class="st10 st11">Connect with us</text>
		<g>
			
				<linearGradient id="SVGID_00000157309679942954064350000013769306500957715894_" gradientUnits="userSpaceOnUse" x1="497.7" y1="445.95" x2="2593.554" y2="445.95" gradientTransform="matrix(1 0 0 -1 0 1716)">
				<stop  offset="3.596230e-03" style="stop-color:#E0545E"/>
				<stop  offset="0.2181" style="stop-color:#D2467F"/>
				<stop  offset="0.4978" style="stop-color:#BA31B1"/>
				<stop  offset="0.7643" style="stop-color:#850ACA"/>
				<stop  offset="1" style="stop-color:#7602CD"/>
			</linearGradient>
			<path style="fill:url(#SVGID_00000157309679942954064350000013769306500957715894_);" d="M612,1149.9c11.5,0,22.8,1.5,33.8,4.5
				s22.9,8.2,35.7,15.4v42.6c-12.5-8.3-24-14.3-34.6-17.9c-10.6-3.7-21.6-5.5-33.1-5.5c-14.4,0-27.4,3.4-39,10.3s-20.6,16.6-27,29.1
				s-9.6,26.4-9.6,41.8c0,15.7,3.2,29.7,9.6,42.1c6.4,12.4,15.4,22,27,28.8s24.6,10.1,39.1,10.1c11.1,0,21.7-1.8,31.8-5.5
				s22.8-10.3,38.2-20v42.6c-13.1,7.9-25.2,13.6-36.2,16.9c-11,3.4-23.9,5-38.6,5c-21.4,0-40.5-4.9-57.3-14.8
				c-16.8-9.8-30-24-39.7-42.5c-9.6-18.5-14.4-38.8-14.4-60.8c0-23.6,5-44.8,14.9-63.6c9.9-18.8,23.5-33.3,40.9-43.4
				C570.7,1155,590.3,1149.9,612,1149.9z"/>
			
				<linearGradient id="SVGID_00000031176558663354466230000011305173554312228508_" gradientUnits="userSpaceOnUse" x1="497.6196" y1="407.0001" x2="2593.4736" y2="407.0001" gradientTransform="matrix(1 0 0 -1 0 1716)">
				<stop  offset="3.596230e-03" style="stop-color:#E0545E"/>
				<stop  offset="0.2181" style="stop-color:#D2467F"/>
				<stop  offset="0.4978" style="stop-color:#BA31B1"/>
				<stop  offset="0.7643" style="stop-color:#850ACA"/>
				<stop  offset="1" style="stop-color:#7602CD"/>
			</linearGradient>
			<path style="fill:url(#SVGID_00000031176558663354466230000011305173554312228508_);" d="M783.7,1227.6
				c14.1,0,26.9,3.4,38.4,10.2c11.5,6.8,20.4,16.4,26.7,28.7c6.3,12.3,9.4,26.2,9.4,41.8c0,16.2-3,30.4-9.1,42.6
				c-6,12.2-14.9,21.8-26.7,28.9c-11.7,7-24.7,10.6-38.8,10.6c-14.2,0-27.1-3.5-38.7-10.6c-11.6-7-20.4-16.7-26.5-28.9
				c-6-12.2-9.1-26.4-9.1-42.6c0-15.8,3.2-29.8,9.6-42c6.4-12.2,15.3-21.7,26.7-28.5C757.1,1231,769.8,1227.6,783.7,1227.6z
				 M746.8,1308.3c0,15.7,3.3,28.2,9.9,37.5c6.6,9.3,15.5,14,26.6,14c11.6,0,20.7-4.5,27.4-13.4s10-21.7,10-38.4
				c0-15.9-3.4-28.2-10.1-36.8c-6.7-8.7-15.8-13-27.3-13c-10.8,0-19.6,4.6-26.4,13.8C750.2,1281,746.8,1293.2,746.8,1308.3z"/>
			
				<linearGradient id="SVGID_00000147931824449667900970000002618424150159760057_" gradientUnits="userSpaceOnUse" x1="497.6196" y1="408.6" x2="2593.4736" y2="408.6" gradientTransform="matrix(1 0 0 -1 0 1716)">
				<stop  offset="3.596230e-03" style="stop-color:#E0545E"/>
				<stop  offset="0.2181" style="stop-color:#D2467F"/>
				<stop  offset="0.4978" style="stop-color:#BA31B1"/>
				<stop  offset="0.7643" style="stop-color:#850ACA"/>
				<stop  offset="1" style="stop-color:#7602CD"/>
			</linearGradient>
			<path style="fill:url(#SVGID_00000147931824449667900970000002618424150159760057_);" d="M965.2,1227.6
				c14.5,0,26.1,5.5,34.7,16.5c8.6,11,13,25.5,13,43.5v99.6h-35.5v-95.4c0-10.2-2.1-18.2-6.3-24.2c-4.2-5.9-9.9-8.9-17.2-8.9
				c-5.5,0-10.7,1.9-15.5,5.6s-10.1,10-15.9,18.7v104.2h-35.7v-156.7h35.7v22c6.6-8.9,13.3-15.3,20.2-19.2
				C949.5,1229.5,957.1,1227.6,965.2,1227.6z"/>
			
				<linearGradient id="SVGID_00000152241822309255468980000012468989501206152096_" gradientUnits="userSpaceOnUse" x1="497.6196" y1="408.6" x2="2593.4736" y2="408.6" gradientTransform="matrix(1 0 0 -1 0 1716)">
				<stop  offset="3.596230e-03" style="stop-color:#E0545E"/>
				<stop  offset="0.2181" style="stop-color:#D2467F"/>
				<stop  offset="0.4978" style="stop-color:#BA31B1"/>
				<stop  offset="0.7643" style="stop-color:#850ACA"/>
				<stop  offset="1" style="stop-color:#7602CD"/>
			</linearGradient>
			<path style="fill:url(#SVGID_00000152241822309255468980000012468989501206152096_);" d="M1125.8,1227.6
				c14.5,0,26.1,5.5,34.7,16.5s13,25.5,13,43.5v99.6H1138v-95.4c0-10.2-2.1-18.2-6.3-24.2c-4.2-5.9-9.9-8.9-17.2-8.9
				c-5.5,0-10.7,1.9-15.5,5.6s-10.1,10-15.9,18.7v104.2h-35.7v-156.7h35.7v22c6.6-8.9,13.3-15.3,20.2-19.2
				C1110.2,1229.5,1117.7,1227.6,1125.8,1227.6z"/>
			
				<linearGradient id="SVGID_00000046329658018411814530000018249351932083157384_" gradientUnits="userSpaceOnUse" x1="497.6196" y1="407.05" x2="2593.4736" y2="407.05" gradientTransform="matrix(1 0 0 -1 0 1716)">
				<stop  offset="3.596230e-03" style="stop-color:#E0545E"/>
				<stop  offset="0.2181" style="stop-color:#D2467F"/>
				<stop  offset="0.4978" style="stop-color:#BA31B1"/>
				<stop  offset="0.7643" style="stop-color:#850ACA"/>
				<stop  offset="1" style="stop-color:#7602CD"/>
			</linearGradient>
			<path style="fill:url(#SVGID_00000046329658018411814530000018249351932083157384_);" d="M1268.6,1227.6
				c19.9,0,35.7,7.4,47.3,22.1c11.6,14.8,17.4,35.2,17.4,61.2v6.2h-95.8c1.4,14,6,24.7,13.6,32.3c7.6,7.5,18,11.3,31.2,11.3
				c8.5,0,16.7-1.7,24.6-5.1s16-8.6,24.4-15.5v30.7c-15.9,13-35.1,19.5-57.7,19.5c-21.4,0-38.8-7.4-52.3-22.3s-20.3-34.7-20.3-59.4
				c0-23.8,6.3-43.3,18.8-58.4C1232.2,1235.1,1248.5,1227.6,1268.6,1227.6z M1299.8,1292.1c-1-11.4-4-20.3-9-26.8
				c-5-6.4-11.9-9.6-20.7-9.6c-9,0-16.2,3.1-21.7,9.2c-5.5,6.2-8.9,15.2-10.4,27.2L1299.8,1292.1L1299.8,1292.1z"/>
			
				<linearGradient id="SVGID_00000183938065570659451640000003921854367559230859_" gradientUnits="userSpaceOnUse" x1="497.6196" y1="407" x2="2593.4736" y2="407" gradientTransform="matrix(1 0 0 -1 0 1716)">
				<stop  offset="3.596230e-03" style="stop-color:#E0545E"/>
				<stop  offset="0.2181" style="stop-color:#D2467F"/>
				<stop  offset="0.4978" style="stop-color:#BA31B1"/>
				<stop  offset="0.7643" style="stop-color:#850ACA"/>
				<stop  offset="1" style="stop-color:#7602CD"/>
			</linearGradient>
			<path style="fill:url(#SVGID_00000183938065570659451640000003921854367559230859_);" d="M1426.2,1227.6c15.8,0,30,3.5,42.8,10.6
				v35.1c-12.7-8.5-24.6-12.7-36-12.7c-12.2,0-22.1,4.4-29.9,13.2c-7.7,8.8-11.6,20.7-11.6,35.6c0,14.7,3.9,26.4,11.7,35.4
				c7.8,8.9,18.1,13.4,31.1,13.4c9.7,0,22-3.7,37.1-11.1v33.4c-14,6.6-28.5,9.9-43.3,9.9c-21.9,0-39.8-7.3-53.4-21.8
				c-13.7-14.5-20.5-33.8-20.5-57.9c0-24.9,6.7-45,20.1-60.2C1387.6,1235.2,1405,1227.6,1426.2,1227.6z"/>
			
				<linearGradient id="SVGID_00000132070541805176819020000013811772747505931932_" gradientUnits="userSpaceOnUse" x1="497.6196" y1="426.4" x2="2593.4736" y2="426.4" gradientTransform="matrix(1 0 0 -1 0 1716)">
				<stop  offset="3.596230e-03" style="stop-color:#E0545E"/>
				<stop  offset="0.2181" style="stop-color:#D2467F"/>
				<stop  offset="0.4978" style="stop-color:#BA31B1"/>
				<stop  offset="0.7643" style="stop-color:#850ACA"/>
				<stop  offset="1" style="stop-color:#7602CD"/>
			</linearGradient>
			<path style="fill:url(#SVGID_00000132070541805176819020000013811772747505931932_);" d="M1535.3,1189h2.9v41.6h46.4v31.2h-46.4
				v72.3c0,7,1.8,12.7,5.5,17.1s8.7,6.5,15.1,6.5c8.3,0,17.9-3.5,28.7-10.4v33c-12.9,6.6-24.9,9.9-36.2,9.9
				c-15.3,0-27.2-4.8-35.7-14.4c-8.6-9.6-12.8-22.6-12.8-39.1v-75h-21.2v-6.7L1535.3,1189z"/>
			
				<linearGradient id="SVGID_00000101811375197110901800000003039238029135761799_" gradientUnits="userSpaceOnUse" x1="497.6196" y1="405.55" x2="2593.4736" y2="405.55" gradientTransform="matrix(1 0 0 -1 0 1716)">
				<stop  offset="3.596230e-03" style="stop-color:#E0545E"/>
				<stop  offset="0.2181" style="stop-color:#D2467F"/>
				<stop  offset="0.4978" style="stop-color:#BA31B1"/>
				<stop  offset="0.7643" style="stop-color:#850ACA"/>
				<stop  offset="1" style="stop-color:#7602CD"/>
			</linearGradient>
			<path style="fill:url(#SVGID_00000101811375197110901800000003039238029135761799_);" d="M1709.5,1230.6l31.5,90.4l32-90.4h23.2
				l31.8,90.4l31.5-90.4h37.1l-60.3,159.7h-15.1l-36.5-95.8l-36.5,95.8h-14.8l-60.9-159.7H1709.5z"/>
			
				<linearGradient id="SVGID_00000125585165873081778640000009399825376132610203_" gradientUnits="userSpaceOnUse" x1="497.6196" y1="443.3" x2="2593.4736" y2="443.3" gradientTransform="matrix(1 0 0 -1 0 1716)">
				<stop  offset="3.596230e-03" style="stop-color:#E0545E"/>
				<stop  offset="0.2181" style="stop-color:#D2467F"/>
				<stop  offset="0.4978" style="stop-color:#BA31B1"/>
				<stop  offset="0.7643" style="stop-color:#850ACA"/>
				<stop  offset="1" style="stop-color:#7602CD"/>
			</linearGradient>
			<path style="fill:url(#SVGID_00000125585165873081778640000009399825376132610203_);" d="M1933.4,1158.1c5.5,0,10.2,2.3,14.2,6.9
				s5.9,10.1,5.9,16.4c0,6.2-2,11.6-5.9,16.4s-8.7,7.1-14.3,7.1c-5.4,0-10.1-2.4-14.1-7.1c-4-4.8-6-10.2-6-16.4c0-6.5,2-12,6.1-16.5
				C1923.4,1160.4,1928.1,1158.1,1933.4,1158.1z M1951.2,1230.6v156.7h-35.7v-156.7H1951.2z"/>
			
				<linearGradient id="SVGID_00000160171220277926137870000005707914742699672754_" gradientUnits="userSpaceOnUse" x1="497.6196" y1="426.4" x2="2593.4736" y2="426.4" gradientTransform="matrix(1 0 0 -1 0 1716)">
				<stop  offset="3.596230e-03" style="stop-color:#E0545E"/>
				<stop  offset="0.2181" style="stop-color:#D2467F"/>
				<stop  offset="0.4978" style="stop-color:#BA31B1"/>
				<stop  offset="0.7643" style="stop-color:#850ACA"/>
				<stop  offset="1" style="stop-color:#7602CD"/>
			</linearGradient>
			<path style="fill:url(#SVGID_00000160171220277926137870000005707914742699672754_);" d="M2025.1,1189h2.9v41.6h46.4v31.2H2028
				v72.3c0,7,1.8,12.7,5.5,17.1s8.7,6.5,15.1,6.5c8.3,0,17.9-3.5,28.7-10.4v33c-12.9,6.6-24.9,9.9-36.2,9.9
				c-15.3,0-27.2-4.8-35.7-14.4c-8.6-9.6-12.8-22.6-12.8-39.1v-75h-21.2v-6.7L2025.1,1189z"/>
			
				<linearGradient id="SVGID_00000017491491234563798330000012183592884372508831_" gradientUnits="userSpaceOnUse" x1="497.6196" y1="445.95" x2="2593.4736" y2="445.95" gradientTransform="matrix(1 0 0 -1 0 1716)">
				<stop  offset="3.596230e-03" style="stop-color:#E0545E"/>
				<stop  offset="0.2181" style="stop-color:#D2467F"/>
				<stop  offset="0.4978" style="stop-color:#BA31B1"/>
				<stop  offset="0.7643" style="stop-color:#850ACA"/>
				<stop  offset="1" style="stop-color:#7602CD"/>
			</linearGradient>
			<path style="fill:url(#SVGID_00000017491491234563798330000012183592884372508831_);" d="M2133.3,1152.9v99.6h0.9
				c11.5-16.7,25.4-25,41.6-25c14.4,0,26,5.5,34.8,16.4c8.8,11,13.2,25.3,13.2,42.9v100.3h-35.5v-92.4c0-10.5-2.2-18.9-6.5-25.1
				s-10.2-9.3-17.6-9.3c-5.4,0-10.5,1.8-15.3,5.4s-10,9.5-15.6,17.8v103.7h-35.7v-234.3H2133.3z"/>
			
				<linearGradient id="SVGID_00000044878261408446940710000016181507562447629240_" gradientUnits="userSpaceOnUse" x1="497.6196" y1="405.55" x2="2593.4736" y2="405.55" gradientTransform="matrix(1 0 0 -1 0 1716)">
				<stop  offset="3.596230e-03" style="stop-color:#E0545E"/>
				<stop  offset="0.2181" style="stop-color:#D2467F"/>
				<stop  offset="0.4978" style="stop-color:#BA31B1"/>
				<stop  offset="0.7643" style="stop-color:#850ACA"/>
				<stop  offset="1" style="stop-color:#7602CD"/>
			</linearGradient>
			<path style="fill:url(#SVGID_00000044878261408446940710000016181507562447629240_);" d="M2375.1,1230.6v97
				c0,10.2,2.2,17.9,6.6,23.2c4.4,5.3,10.2,8,17.5,8c6,0,11.7-2.1,17.3-6.4c5.5-4.2,10-10.2,13.3-17.9v-103.8h35.7v156.7h-35.7V1366
				c-12.9,16.2-26.8,24.3-41.8,24.3c-14.5,0-26.2-5.5-35.1-16.4c-8.9-11-13.3-25.3-13.3-42.9v-100.3L2375.1,1230.6L2375.1,1230.6z"
				/>
			
				<linearGradient id="SVGID_00000075132710528688215090000003887370669249320325_" gradientUnits="userSpaceOnUse" x1="497.6196" y1="407.1" x2="2593.4736" y2="407.1" gradientTransform="matrix(1 0 0 -1 0 1716)">
				<stop  offset="3.596230e-03" style="stop-color:#E0545E"/>
				<stop  offset="0.2181" style="stop-color:#D2467F"/>
				<stop  offset="0.4978" style="stop-color:#BA31B1"/>
				<stop  offset="0.7643" style="stop-color:#850ACA"/>
				<stop  offset="1" style="stop-color:#7602CD"/>
			</linearGradient>
			<path style="fill:url(#SVGID_00000075132710528688215090000003887370669249320325_);" d="M2545,1227.6c7.4,0,14.4,1,21,2.9
				c6.6,2,13.5,5.1,20.9,9.3v33c-6.8-5-14-9.1-21.7-12.2s-14.6-4.6-20.7-4.6c-5.1,0-9.1,1.1-12,3.4c-2.9,2.2-4.3,5.4-4.3,9.6
				c0,2.3,1.2,4.7,3.6,7c2.4,2.3,9,6.7,19.9,12.9c15.5,9.1,26.3,17.4,32.5,25.1s9.4,16.9,9.4,27.6c0,15.1-4.5,27-13.6,35.6
				c-9.1,8.7-21.4,13-36.8,13c-9.7,0-18.7-1.2-27-3.7c-8.4-2.5-15.3-5.4-20.8-8.9v-34.4c17.4,11.2,32,16.8,43.9,16.8
				c6.1,0,11-1.3,14.8-3.8s5.7-5.8,5.7-10c0-2.5-0.7-4.7-2-6.7c-1.4-2-3.4-4.1-6.1-6.2c-2.7-2.1-11.2-7.2-25.4-15.3
				c-10.9-6-19-12.6-24.2-19.7s-7.8-15.5-7.8-25.2c0-13.9,4.7-24.9,14.1-33.2C2517.5,1231.7,2529.8,1227.6,2545,1227.6z"/>
		</g>
	</g>
</g>
</svg>
