<?xml version="1.0" encoding="UTF-8"?>
<!DOCTYPE svg PUBLIC "-//W3C//DTD SVG 1.1//EN" "http://www.w3.org/Graphics/SVG/1.1/DTD/svg11.dtd">
<!-- Creator: CorelDRAW 2020 (64-Bit) -->
<svg xmlns="http://www.w3.org/2000/svg" xml:space="preserve" width="1.12525in" height="1.12525in" version="1.1" style="shape-rendering:geometricPrecision; text-rendering:geometricPrecision; image-rendering:optimizeQuality; fill-rule:evenodd; clip-rule:evenodd"
viewBox="0 0 1125.25 1125.25"
 xmlns:xlink="http://www.w3.org/1999/xlink"
 xmlns:xodm="http://www.corel.com/coreldraw/odm/2003">
 <defs>
  <style type="text/css">
   <![CDATA[
    .str0 {stroke:#999999;stroke-width:20.83;stroke-linecap:round;stroke-miterlimit:2.61313}
    .str1 {stroke:#F27320;stroke-width:20.83;stroke-linecap:round;stroke-miterlimit:2.61313}
    .fil0 {fill:none}
   ]]>
  </style>
 </defs>
 <g id="Layer_x0020_1">
  <metadata id="CorelCorpID_0Corel-Layer"/>
  <g id="_2166873200576">
   <g id="taxnotes-custom-resource-icons_tax-notes-talk.svg">
    <g>
     <path class="fil0 str0" d="M576.12 721.4l-28.54 0c-58.38,0 -105.08,-46.7 -105.08,-105.08l0 -198.49c0,-58.38 46.7,-105.08 105.08,-105.08l28.54 -0.01c58.38,0 105.08,46.7 105.08,105.08l0 198.49c0,58.38 -46.7,105.09 -105.08,105.09z"/>
     <path class="fil0 str0" d="M644.88 774.59c-24.65,7.79 -53.19,12.98 -83.03,12.98l0 0c-102.49,0 -185.52,-57.08 -185.52,-127.14"/>
     <path class="fil0 str0" d="M703.26 744.75c-2.59,2.59 -3.89,3.89 -5.19,5.19"/>
     <path class="fil0 str0" d="M747.37 661.72c0,14.27 -3.89,28.54 -10.38,41.52"/>
     <line class="fil0 str0" x1="730.5" y1="647.45" x2="792.78" y2= "647.45" />
     <line class="fil0 str0" x1="329.63" y1="647.45" x2="390.61" y2= "647.45" />
     <line class="fil0 str0" x1="560.55" y1="840.75" x2="560.55" y2= "938.05" />
     <line class="fil0 str0" x1="496.98" y1="952.32" x2="625.42" y2= "952.32" />
     <line class="fil0 str0" x1="452.88" y1="450.26" x2="509.96" y2= "450.26" />
     <line class="fil0 str0" x1="452.88" y1="507.34" x2="509.96" y2= "507.34" />
     <line class="fil0 str0" x1="452.88" y1="564.43" x2="509.96" y2= "564.43" />
     <line class="fil0 str0" x1="609.85" y1="450.26" x2="678.61" y2= "450.26" />
     <line class="fil0 str0" x1="609.85" y1="507.34" x2="678.61" y2= "507.34" />
     <line class="fil0 str0" x1="609.85" y1="564.43" x2="678.61" y2= "564.43" />
     <g>
      <line class="fil0 str1" x1="345.2" y1="192.09" x2="413.95" y2= "267.34" />
      <line class="fil0 str1" x1="345.2" y1="192.09" x2="413.95" y2= "267.34" />
      <line class="fil0 str1" x1="345.2" y1="192.09" x2="413.95" y2= "267.34" />
      <line class="fil0 str1" x1="345.2" y1="192.09" x2="413.95" y2= "267.34" />
      <line class="fil0 str1" x1="345.2" y1="192.09" x2="413.95" y2= "267.34" />
      <line class="fil0 str1" x1="345.2" y1="192.09" x2="413.95" y2= "267.34" />
     </g>
     <line class="fil0 str1" x1="260.87" y1="391.88" x2="360.76" y2= "411.34" />
     <g>
      <line class="fil0 str1" x1="560.55" y1="142.8" x2="560.55" y2= "238.8" />
      <line class="fil0 str1" x1="560.55" y1="142.8" x2="560.55" y2= "238.8" />
      <line class="fil0 str1" x1="560.55" y1="142.8" x2="560.55" y2= "238.8" />
      <line class="fil0 str1" x1="560.55" y1="142.8" x2="560.55" y2= "238.8" />
      <line class="fil0 str1" x1="560.55" y1="142.8" x2="560.55" y2= "238.8" />
      <line class="fil0 str1" x1="560.55" y1="142.8" x2="560.55" y2= "238.8" />
     </g>
    </g>
   </g>
   <circle class="fil0" cx="562.63" cy="562.63" r="562.63"/>
  </g>
 </g>
</svg>
